  0
SECTION
  2
HEADER
  9
$ACADVER
  1
AC1014
  9
$HANDSEED
  5
FFFF
  9
$MEASUREMENT
 70
     1
  0
ENDSEC
  0
SECTION
  2
TABLES
  0
TABLE
  2
VPORT
  5
8
330
0
100
AcDbSymbolTable
 70
     4
  0
VPORT
  5
2E
330
8
100
AcDbSymbolTableRecord
100
AcDbViewportTableRecord
  2
*ACTIVE
 70
     0
 10
0.0
 20
0.0
 11
1.0
 21
1.0
 12
210.0
 22
148.5
 13
0.0
 23
0.0
 14
10.0
 24
10.0
 15
10.0
 25
10.0
 16
0.0
 26
0.0
 36
1.0
 17
0.0
 27
0.0
 37
0.0
 40
341.0
 41
1.24
 42
50.0
 43
0.0
 44
0.0
 50
0.0
 51
0.0
 71
     0
 72
   100
 73
     1
 74
     3
 75
     0
 76
     0
 77
     0
 78
     0
  0
ENDTAB
  0
TABLE
  2
LTYPE
  5
5
330
0
100
AcDbSymbolTable
 70
     1
  0
LTYPE
  5
14
330
5
100
AcDbSymbolTableRecord
100
AcDbLinetypeTableRecord
  2
BYBLOCK
 70
     0
  3

 72
    65
 73
     0
 40
0.0
  0
LTYPE
  5
15
330
5
100
AcDbSymbolTableRecord
100
AcDbLinetypeTableRecord
  2
BYLAYER
 70
     0
  3

 72
    65
 73
     0
 40
0.0
  0
LTYPE
  5
16
330
5
100
AcDbSymbolTableRecord
100
AcDbLinetypeTableRecord
  2
CONTINUOUS
 70
     0
  3
Solid line
 72
    65
 73
     0
 40
0.0
  0
ENDTAB
  0
TABLE
  2
LAYER
  5
2
100
AcDbSymbolTable
 70
2
  0
LAYER
  5
50
100
AcDbSymbolTableRecord
100
AcDbLayerTableRecord
  2
0
 70
0
  6
CONTINUOUS
  0
LAYER
  5
51
100
AcDbSymbolTableRecord
100
AcDbLayerTableRecord
  2
Laag_1
 70
0
  6
CONTINUOUS
  0
ENDTAB
  0
TABLE
  2
STYLE
  5
3
330
0
100
AcDbSymbolTable
 70
     1
  0
STYLE
  5
11
330
3
100
AcDbSymbolTableRecord
100
AcDbTextStyleTableRecord
  2
STANDARD
 70
     0
 40
0.0
 41
1.0
 50
0.0
 71
     0
 42
2.5
  3
txt
  4

  0
ENDTAB
  0
TABLE
  2
VIEW
  5
6
330
0
100
AcDbSymbolTable
 70
     0
  0
ENDTAB
  0
TABLE
  2
UCS
  5
7
330
0
100
AcDbSymbolTable
 70
     0
  0
ENDTAB
  0
TABLE
  2
APPID
  5
9
330
0
100
AcDbSymbolTable
 70
     2
  0
APPID
  5
12
330
9
100
AcDbSymbolTableRecord
100
AcDbRegAppTableRecord
  2
ACAD
 70
     0
  0
ENDTAB
  0
TABLE
  2
DIMSTYLE
  5
A
330
0
100
AcDbSymbolTable
 70
     1
  0
DIMSTYLE
105
27
330
A
100
AcDbSymbolTableRecord
100
AcDbDimStyleTableRecord
  2
ISO-25
 70
     0
  3

  4

  5

  6

  7

 40
1.0
 41
2.5
 42
0.625
 43
3.75
 44
1.25
 45
0.0
 46
0.0
 47
0.0
 48
0.0
140
2.5
141
2.5
142
0.0
143
0.03937007874016
144
1.0
145
0.0
146
1.0
147
0.625
 71
     0
 72
     0
 73
     0
 74
     0
 75
     0
 76
     0
 77
     1
 78
     8
170
     0
171
     3
172
     1
173
     0
174
     0
175
     0
176
     0
177
     0
178
     0
270
     2
271
     2
272
     2
273
     2
274
     3
340
11
275
     0
280
     0
281
     0
282
     0
283
     0
284
     8
285
     0
286
     0
287
     3
288
     0
  0
ENDTAB
  0
TABLE
  2
BLOCK_RECORD
  5
1
330
0
100
AcDbSymbolTable
 70
     1
  0
BLOCK_RECORD
  5
1F
330
1
100
AcDbSymbolTableRecord
100
AcDbBlockTableRecord
  2
*MODEL_SPACE
  0
BLOCK_RECORD
  5
1B
330
1
100
AcDbSymbolTableRecord
100
AcDbBlockTableRecord
  2
*PAPER_SPACE
  0
ENDTAB
  0
ENDSEC
  0
SECTION
  2
BLOCKS
  0
BLOCK
  5
20
330
1F
100
AcDbEntity
  8
0
100
AcDbBlockBegin
  2
*MODEL_SPACE
 70
     0
 10
0.0
 20
0.0
 30
0.0
  3
*MODEL_SPACE
  1

  0
ENDBLK
  5
21
330
1F
100
AcDbEntity
  8
0
100
AcDbBlockEnd
  0
BLOCK
  5
1C
330
1B
100
AcDbEntity
 67
     1
  8
0
100
AcDbBlockBegin
  2
*PAPER_SPACE
  1

  0
ENDBLK
  5
1D
330
1B
100
AcDbEntity
 67
     1
  8
0
100
AcDbBlockEnd
  0
ENDSEC
  0
SECTION
  2
ENTITIES
  0
LWPOLYLINE
  5
100
100
AcDbEntity
  8
Laag_1
 62
3
100
AcDbPolyline
 90
2
 70
0
 10
102.499995
 20
200.196227
 30
0.0
 10
102.499995
 20
220.000000
 30
0.0
  0
LWPOLYLINE
  5
101
100
AcDbEntity
  8
Laag_1
 62
3
100
AcDbPolyline
 90
2
 70
0
 10
90.167494
 20
198.569376
 30
0.0
 10
85.041900
 20
217.698352
 30
0.0
  0
LWPOLYLINE
  5
102
100
AcDbEntity
  8
Laag_1
 62
3
100
AcDbPolyline
 90
2
 70
0
 10
78.676272
 20
193.806068
 30
0.0
 10
68.774386
 20
210.956643
 30
0.0
  0
LWPOLYLINE
  5
103
100
AcDbEntity
  8
Laag_1
 62
3
100
AcDbPolyline
 90
2
 70
0
 10
68.809436
 20
186.230928
 30
0.0
 10
54.806053
 20
200.234309
 30
0.0
  0
LWPOLYLINE
  5
104
100
AcDbEntity
  8
Laag_1
 62
3
100
AcDbPolyline
 90
2
 70
0
 10
61.239398
 20
176.360178
 30
0.0
 10
44.088827
 20
186.262058
 30
0.0
  0
LWPOLYLINE
  5
105
100
AcDbEntity
  8
Laag_1
 62
3
100
AcDbPolyline
 90
2
 70
0
 10
56.482042
 20
164.866488
 30
0.0
 10
37.353066
 20
169.992088
 30
0.0
  0
LWPOLYLINE
  5
106
100
AcDbEntity
  8
Laag_1
 62
3
100
AcDbPolyline
 90
2
 70
0
 10
54.861573
 20
152.533148
 30
0.0
 10
35.057803
 20
152.533148
 30
0.0
  0
LWPOLYLINE
  5
107
100
AcDbEntity
  8
Laag_1
 62
3
100
AcDbPolyline
 90
2
 70
0
 10
56.488427
 20
140.200648
 30
0.0
 10
37.359451
 20
135.075058
 30
0.0
  0
LWPOLYLINE
  5
108
100
AcDbEntity
  8
Laag_1
 62
3
100
AcDbPolyline
 90
2
 70
0
 10
61.251731
 20
128.709428
 30
0.0
 10
44.101160
 20
118.807538
 30
0.0
  0
LWPOLYLINE
  5
109
100
AcDbEntity
  8
Laag_1
 62
3
100
AcDbPolyline
 90
2
 70
0
 10
68.826876
 20
118.842638
 30
0.0
 10
54.823494
 20
104.839258
 30
0.0
  0
LWPOLYLINE
  5
10a
100
AcDbEntity
  8
Laag_1
 62
3
100
AcDbPolyline
 90
2
 70
0
 10
78.697629
 20
111.272608
 30
0.0
 10
68.795742
 20
94.122038
 30
0.0
  0
LWPOLYLINE
  5
10b
100
AcDbEntity
  8
Laag_1
 62
3
100
AcDbPolyline
 90
2
 70
0
 10
90.191314
 20
106.515248
 30
0.0
 10
85.065720
 20
87.386268
 30
0.0
  0
LWPOLYLINE
  5
10c
100
AcDbEntity
  8
Laag_1
 62
3
100
AcDbPolyline
 90
2
 70
0
 10
102.524655
 20
104.894778
 30
0.0
 10
102.524655
 20
85.091008
 30
0.0
  0
LWPOLYLINE
  5
10d
100
AcDbEntity
  8
Laag_1
 62
3
100
AcDbPolyline
 90
2
 70
0
 10
114.857155
 20
106.521628
 30
0.0
 10
119.982745
 20
87.392658
 30
0.0
  0
LWPOLYLINE
  5
10e
100
AcDbEntity
  8
Laag_1
 62
3
100
AcDbPolyline
 90
2
 70
0
 10
126.348375
 20
111.284938
 30
0.0
 10
136.250265
 20
94.134368
 30
0.0
  0
LWPOLYLINE
  5
10f
100
AcDbEntity
  8
Laag_1
 62
3
100
AcDbPolyline
 90
2
 70
0
 10
136.215165
 20
118.860078
 30
0.0
 10
150.218545
 20
104.856698
 30
0.0
  0
LWPOLYLINE
  5
110
100
AcDbEntity
  8
Laag_1
 62
3
100
AcDbPolyline
 90
2
 70
0
 10
143.785195
 20
128.730828
 30
0.0
 10
160.935765
 20
118.828948
 30
0.0
  0
LWPOLYLINE
  5
111
100
AcDbEntity
  8
Laag_1
 62
3
100
AcDbPolyline
 90
2
 70
0
 10
148.542555
 20
140.224518
 30
0.0
 10
167.671535
 20
135.098918
 30
0.0
  0
LWPOLYLINE
  5
112
100
AcDbEntity
  8
Laag_1
 62
3
100
AcDbPolyline
 90
2
 70
0
 10
150.163025
 20
152.557858
 30
0.0
 10
169.966795
 20
152.557858
 30
0.0
  0
LWPOLYLINE
  5
113
100
AcDbEntity
  8
Laag_1
 62
3
100
AcDbPolyline
 90
2
 70
0
 10
148.536175
 20
164.890358
 30
0.0
 10
167.665145
 20
170.015948
 30
0.0
  0
LWPOLYLINE
  5
114
100
AcDbEntity
  8
Laag_1
 62
3
100
AcDbPolyline
 90
2
 70
0
 10
143.772865
 20
176.381578
 30
0.0
 10
160.923435
 20
186.283468
 30
0.0
  0
LWPOLYLINE
  5
115
100
AcDbEntity
  8
Laag_1
 62
3
100
AcDbPolyline
 90
2
 70
0
 10
136.197725
 20
186.248468
 30
0.0
 10
150.201105
 20
200.251847
 30
0.0
  0
LWPOLYLINE
  5
116
100
AcDbEntity
  8
Laag_1
 62
3
100
AcDbPolyline
 90
2
 70
0
 10
126.326975
 20
193.818498
 30
0.0
 10
136.228855
 20
210.969073
 30
0.0
  0
LWPOLYLINE
  5
117
100
AcDbEntity
  8
Laag_1
 62
3
100
AcDbPolyline
 90
2
 70
0
 10
114.833285
 20
198.575858
 30
0.0
 10
119.958885
 20
217.704834
 30
0.0
  0
LWPOLYLINE
  5
118
100
AcDbEntity
  8
Laag_1
 62
1
100
AcDbPolyline
 90
4
 70
1
 10
100.132290
 20
227.367702
 30
0.0
 10
104.867710
 20
227.367702
 30
0.0
 10
104.867710
 20
222.632292
 30
0.0
 10
100.132290
 20
222.632292
 30
0.0
  0
LWPOLYLINE
  5
119
100
AcDbEntity
  8
Laag_1
 62
1
100
AcDbPolyline
 90
4
 70
1
 10
90.377780
 20
226.417982
 30
0.0
 10
95.072688
 20
227.036078
 30
0.0
 10
95.690783
 20
222.341180
 30
0.0
 10
90.995875
 20
221.723084
 30
0.0
  0
LWPOLYLINE
  5
11a
100
AcDbEntity
  8
Laag_1
 62
1
100
AcDbPolyline
 90
4
 70
1
 10
80.830684
 20
224.203168
 30
0.0
 10
85.404749
 20
225.428784
 30
0.0
 10
86.630363
 20
220.854730
 30
0.0
 10
82.056299
 20
219.629113
 30
0.0
  0
LWPOLYLINE
  5
11b
100
AcDbEntity
  8
Laag_1
 62
1
100
AcDbPolyline
 90
4
 70
1
 10
71.654357
 20
220.761155
 30
0.0
 10
76.029315
 20
222.573322
 30
0.0
 10
77.841478
 20
218.198374
 30
0.0
 10
73.466520
 20
216.386207
 30
0.0
  0
LWPOLYLINE
  5
11c
100
AcDbEntity
  8
Laag_1
 62
1
100
AcDbPolyline
 90
4
 70
1
 10
63.005807
 20
216.150839
 30
0.0
 10
67.106801
 20
218.518549
 30
0.0
 10
69.474506
 20
214.417564
 30
0.0
 10
65.373512
 20
212.049854
 30
0.0
  0
LWPOLYLINE
  5
11d
100
AcDbEntity
  8
Laag_1
 62
1
100
AcDbPolyline
 90
4
 70
1
 10
55.033014
 20
210.451102
 30
0.0
 10
58.789875
 20
213.333843
 30
0.0
 10
61.672610
 20
209.576990
 30
0.0
 10
57.915749
 20
206.694249
 30
0.0
  0
LWPOLYLINE
  5
11e
100
AcDbEntity
  8
Laag_1
 62
1
100
AcDbPolyline
 90
4
 70
1
 10
47.872393
 20
203.759469
 30
0.0
 10
51.220841
 20
207.107917
 30
0.0
 10
54.569282
 20
203.759476
 30
0.0
 10
51.220834
 20
200.411028
 30
0.0
  0
LWPOLYLINE
  5
11f
100
AcDbEntity
  8
Laag_1
 62
1
100
AcDbPolyline
 90
4
 70
1
 10
41.646467
 20
196.190440
 30
0.0
 10
44.529208
 20
199.947296
 30
0.0
 10
48.286061
 20
197.064561
 30
0.0
 10
45.403320
 20
193.307700
 30
0.0
  0
LWPOLYLINE
  5
120
100
AcDbEntity
  8
Laag_1
 62
1
100
AcDbPolyline
 90
4
 70
1
 10
36.461761
 20
187.873510
 30
0.0
 10
38.829471
 20
191.974500
 30
0.0
 10
42.930456
 20
189.606800
 30
0.0
 10
40.562746
 20
185.505800
 30
0.0
  0
LWPOLYLINE
  5
121
100
AcDbEntity
  8
Laag_1
 62
1
100
AcDbPolyline
 90
4
 70
1
 10
32.406988
 20
178.951000
 30
0.0
 10
34.219155
 20
183.325950
 30
0.0
 10
38.594103
 20
181.513790
 30
0.0
 10
36.781936
 20
177.138830
 30
0.0
  0
LWPOLYLINE
  5
122
100
AcDbEntity
  8
Laag_1
 62
1
100
AcDbPolyline
 90
4
 70
1
 10
29.551526
 20
169.575560
 30
0.0
 10
30.777142
 20
174.149630
 30
0.0
 10
35.351197
 20
172.924010
 30
0.0
 10
34.125580
 20
168.349950
 30
0.0
  0
LWPOLYLINE
  5
123
100
AcDbEntity
  8
Laag_1
 62
1
100
AcDbPolyline
 90
4
 70
1
 10
27.944232
 20
159.907620
 30
0.0
 10
28.562328
 20
164.602530
 30
0.0
 10
33.257226
 20
163.984430
 30
0.0
 10
32.639130
 20
159.289530
 30
0.0
  0
LWPOLYLINE
  5
124
100
AcDbEntity
  8
Laag_1
 62
1
100
AcDbPolyline
 90
4
 70
1
 10
27.612608
 20
150.112600
 30
0.0
 10
27.612608
 20
154.848020
 30
0.0
 10
32.348018
 20
154.848020
 30
0.0
 10
32.348018
 20
150.112600
 30
0.0
  0
LWPOLYLINE
  5
125
100
AcDbEntity
  8
Laag_1
 62
1
100
AcDbPolyline
 90
4
 70
1
 10
28.562328
 20
140.358090
 30
0.0
 10
27.944232
 20
145.053000
 30
0.0
 10
32.639130
 20
145.671090
 30
0.0
 10
33.257226
 20
140.976190
 30
0.0
  0
LWPOLYLINE
  5
126
100
AcDbEntity
  8
Laag_1
 62
1
100
AcDbPolyline
 90
4
 70
1
 10
30.777142
 20
130.810990
 30
0.0
 10
29.551526
 20
135.385060
 30
0.0
 10
34.125580
 20
136.610670
 30
0.0
 10
35.351197
 20
132.036610
 30
0.0
  0
LWPOLYLINE
  5
127
100
AcDbEntity
  8
Laag_1
 62
1
100
AcDbPolyline
 90
4
 70
1
 10
34.219155
 20
121.634670
 30
0.0
 10
32.406988
 20
126.009620
 30
0.0
 10
36.781936
 20
127.821790
 30
0.0
 10
38.594103
 20
123.446830
 30
0.0
  0
LWPOLYLINE
  5
128
100
AcDbEntity
  8
Laag_1
 62
1
100
AcDbPolyline
 90
4
 70
1
 10
38.829471
 20
112.986120
 30
0.0
 10
36.461761
 20
117.087110
 30
0.0
 10
40.562746
 20
119.454820
 30
0.0
 10
42.930456
 20
115.353820
 30
0.0
  0
LWPOLYLINE
  5
129
100
AcDbEntity
  8
Laag_1
 62
1
100
AcDbPolyline
 90
4
 70
1
 10
44.529208
 20
105.013320
 30
0.0
 10
41.646467
 20
108.770180
 30
0.0
 10
45.403320
 20
111.652920
 30
0.0
 10
48.286061
 20
107.896060
 30
0.0
  0
LWPOLYLINE
  5
12a
100
AcDbEntity
  8
Laag_1
 62
1
100
AcDbPolyline
 90
4
 70
1
 10
51.220841
 20
97.852700
 30
0.0
 10
47.872393
 20
101.201150
 30
0.0
 10
51.220834
 20
104.549590
 30
0.0
 10
54.569282
 20
101.201140
 30
0.0
  0
LWPOLYLINE
  5
12b
100
AcDbEntity
  8
Laag_1
 62
1
100
AcDbPolyline
 90
4
 70
1
 10
58.789875
 20
91.626780
 30
0.0
 10
55.033014
 20
94.509520
 30
0.0
 10
57.915749
 20
98.266370
 30
0.0
 10
61.672610
 20
95.383630
 30
0.0
  0
LWPOLYLINE
  5
12c
100
AcDbEntity
  8
Laag_1
 62
1
100
AcDbPolyline
 90
4
 70
1
 10
67.106801
 20
86.442070
 30
0.0
 10
63.005807
 20
88.809780
 30
0.0
 10
65.373512
 20
92.910770
 30
0.0
 10
69.474506
 20
90.543060
 30
0.0
  0
LWPOLYLINE
  5
12d
100
AcDbEntity
  8
Laag_1
 62
1
100
AcDbPolyline
 90
4
 70
1
 10
76.029315
 20
82.387300
 30
0.0
 10
71.654357
 20
84.199460
 30
0.0
 10
73.466520
 20
88.574410
 30
0.0
 10
77.841478
 20
86.762250
 30
0.0
  0
LWPOLYLINE
  5
12e
100
AcDbEntity
  8
Laag_1
 62
1
100
AcDbPolyline
 90
4
 70
1
 10
85.404749
 20
79.531840
 30
0.0
 10
80.830684
 20
80.757450
 30
0.0
 10
82.056299
 20
85.331510
 30
0.0
 10
86.630363
 20
84.105890
 30
0.0
  0
LWPOLYLINE
  5
12f
100
AcDbEntity
  8
Laag_1
 62
1
100
AcDbPolyline
 90
4
 70
1
 10
95.072688
 20
77.924540
 30
0.0
 10
90.377780
 20
78.542640
 30
0.0
 10
90.995875
 20
83.237540
 30
0.0
 10
95.690783
 20
82.619440
 30
0.0
  0
LWPOLYLINE
  5
130
100
AcDbEntity
  8
Laag_1
 62
1
100
AcDbPolyline
 90
4
 70
1
 10
104.867710
 20
77.592920
 30
0.0
 10
100.132290
 20
77.592920
 30
0.0
 10
100.132290
 20
82.328330
 30
0.0
 10
104.867710
 20
82.328330
 30
0.0
  0
LWPOLYLINE
  5
131
100
AcDbEntity
  8
Laag_1
 62
1
100
AcDbPolyline
 90
4
 70
1
 10
114.622220
 20
78.542640
 30
0.0
 10
109.927310
 20
77.924540
 30
0.0
 10
109.309220
 20
82.619440
 30
0.0
 10
114.004120
 20
83.237540
 30
0.0
  0
LWPOLYLINE
  5
132
100
AcDbEntity
  8
Laag_1
 62
1
100
AcDbPolyline
 90
4
 70
1
 10
124.169320
 20
80.757450
 30
0.0
 10
119.595250
 20
79.531840
 30
0.0
 10
118.369640
 20
84.105890
 30
0.0
 10
122.943700
 20
85.331510
 30
0.0
  0
LWPOLYLINE
  5
133
100
AcDbEntity
  8
Laag_1
 62
1
100
AcDbPolyline
 90
4
 70
1
 10
133.345640
 20
84.199460
 30
0.0
 10
128.970690
 20
82.387300
 30
0.0
 10
127.158520
 20
86.762250
 30
0.0
 10
131.533480
 20
88.574410
 30
0.0
  0
LWPOLYLINE
  5
134
100
AcDbEntity
  8
Laag_1
 62
1
100
AcDbPolyline
 90
4
 70
1
 10
141.994190
 20
88.809780
 30
0.0
 10
137.893200
 20
86.442070
 30
0.0
 10
135.525490
 20
90.543060
 30
0.0
 10
139.626490
 20
92.910770
 30
0.0
  0
LWPOLYLINE
  5
135
100
AcDbEntity
  8
Laag_1
 62
1
100
AcDbPolyline
 90
4
 70
1
 10
149.966990
 20
94.509520
 30
0.0
 10
146.210130
 20
91.626780
 30
0.0
 10
143.327390
 20
95.383630
 30
0.0
 10
147.084250
 20
98.266370
 30
0.0
  0
LWPOLYLINE
  5
136
100
AcDbEntity
  8
Laag_1
 62
1
100
AcDbPolyline
 90
4
 70
1
 10
157.127610
 20
101.201150
 30
0.0
 10
153.779160
 20
97.852700
 30
0.0
 10
150.430720
 20
101.201140
 30
0.0
 10
153.779170
 20
104.549590
 30
0.0
  0
LWPOLYLINE
  5
137
100
AcDbEntity
  8
Laag_1
 62
1
100
AcDbPolyline
 90
4
 70
1
 10
163.353530
 20
108.770180
 30
0.0
 10
160.470790
 20
105.013320
 30
0.0
 10
156.713940
 20
107.896060
 30
0.0
 10
159.596680
 20
111.652920
 30
0.0
  0
LWPOLYLINE
  5
138
100
AcDbEntity
  8
Laag_1
 62
1
100
AcDbPolyline
 90
4
 70
1
 10
168.538240
 20
117.087110
 30
0.0
 10
166.170530
 20
112.986120
 30
0.0
 10
162.069540
 20
115.353820
 30
0.0
 10
164.437250
 20
119.454820
 30
0.0
  0
LWPOLYLINE
  5
139
100
AcDbEntity
  8
Laag_1
 62
1
100
AcDbPolyline
 90
4
 70
1
 10
172.593010
 20
126.009620
 30
0.0
 10
170.780850
 20
121.634670
 30
0.0
 10
166.405900
 20
123.446830
 30
0.0
 10
168.218060
 20
127.821790
 30
0.0
  0
LWPOLYLINE
  5
13a
100
AcDbEntity
  8
Laag_1
 62
1
100
AcDbPolyline
 90
4
 70
1
 10
175.448470
 20
135.385060
 30
0.0
 10
174.222860
 20
130.810990
 30
0.0
 10
169.648800
 20
132.036610
 30
0.0
 10
170.874420
 20
136.610670
 30
0.0
  0
LWPOLYLINE
  5
13b
100
AcDbEntity
  8
Laag_1
 62
1
100
AcDbPolyline
 90
4
 70
1
 10
177.055770
 20
145.053000
 30
0.0
 10
176.437670
 20
140.358090
 30
0.0
 10
171.742770
 20
140.976190
 30
0.0
 10
172.360870
 20
145.671090
 30
0.0
  0
LWPOLYLINE
  5
13c
100
AcDbEntity
  8
Laag_1
 62
1
100
AcDbPolyline
 90
4
 70
1
 10
177.387390
 20
154.848020
 30
0.0
 10
177.387390
 20
150.112600
 30
0.0
 10
172.651980
 20
150.112600
 30
0.0
 10
172.651980
 20
154.848020
 30
0.0
  0
LWPOLYLINE
  5
13d
100
AcDbEntity
  8
Laag_1
 62
1
100
AcDbPolyline
 90
4
 70
1
 10
176.437670
 20
164.602530
 30
0.0
 10
177.055770
 20
159.907620
 30
0.0
 10
172.360870
 20
159.289530
 30
0.0
 10
171.742770
 20
163.984430
 30
0.0
  0
LWPOLYLINE
  5
13e
100
AcDbEntity
  8
Laag_1
 62
1
100
AcDbPolyline
 90
4
 70
1
 10
174.222860
 20
174.149630
 30
0.0
 10
175.448470
 20
169.575560
 30
0.0
 10
170.874420
 20
168.349950
 30
0.0
 10
169.648800
 20
172.924010
 30
0.0
  0
LWPOLYLINE
  5
13f
100
AcDbEntity
  8
Laag_1
 62
1
100
AcDbPolyline
 90
4
 70
1
 10
170.780850
 20
183.325950
 30
0.0
 10
172.593010
 20
178.951000
 30
0.0
 10
168.218060
 20
177.138830
 30
0.0
 10
166.405900
 20
181.513790
 30
0.0
  0
LWPOLYLINE
  5
140
100
AcDbEntity
  8
Laag_1
 62
1
100
AcDbPolyline
 90
4
 70
1
 10
166.170530
 20
191.974500
 30
0.0
 10
168.538240
 20
187.873510
 30
0.0
 10
164.437250
 20
185.505800
 30
0.0
 10
162.069540
 20
189.606800
 30
0.0
  0
LWPOLYLINE
  5
141
100
AcDbEntity
  8
Laag_1
 62
1
100
AcDbPolyline
 90
4
 70
1
 10
160.470790
 20
199.947296
 30
0.0
 10
163.353530
 20
196.190440
 30
0.0
 10
159.596680
 20
193.307700
 30
0.0
 10
156.713940
 20
197.064561
 30
0.0
  0
LWPOLYLINE
  5
142
100
AcDbEntity
  8
Laag_1
 62
1
100
AcDbPolyline
 90
4
 70
1
 10
153.779160
 20
207.107917
 30
0.0
 10
157.127610
 20
203.759469
 30
0.0
 10
153.779170
 20
200.411028
 30
0.0
 10
150.430720
 20
203.759476
 30
0.0
  0
LWPOLYLINE
  5
143
100
AcDbEntity
  8
Laag_1
 62
1
100
AcDbPolyline
 90
4
 70
1
 10
146.210130
 20
213.333843
 30
0.0
 10
149.966990
 20
210.451102
 30
0.0
 10
147.084250
 20
206.694249
 30
0.0
 10
143.327390
 20
209.576990
 30
0.0
  0
LWPOLYLINE
  5
144
100
AcDbEntity
  8
Laag_1
 62
1
100
AcDbPolyline
 90
4
 70
1
 10
137.893200
 20
218.518549
 30
0.0
 10
141.994190
 20
216.150839
 30
0.0
 10
139.626490
 20
212.049854
 30
0.0
 10
135.525490
 20
214.417564
 30
0.0
  0
LWPOLYLINE
  5
145
100
AcDbEntity
  8
Laag_1
 62
1
100
AcDbPolyline
 90
4
 70
1
 10
128.970690
 20
222.573322
 30
0.0
 10
133.345640
 20
220.761155
 30
0.0
 10
131.533480
 20
216.386207
 30
0.0
 10
127.158520
 20
218.198374
 30
0.0
  0
LWPOLYLINE
  5
146
100
AcDbEntity
  8
Laag_1
 62
1
100
AcDbPolyline
 90
4
 70
1
 10
119.595250
 20
225.428784
 30
0.0
 10
124.169320
 20
224.203168
 30
0.0
 10
122.943700
 20
219.629113
 30
0.0
 10
118.369640
 20
220.854730
 30
0.0
  0
LWPOLYLINE
  5
147
100
AcDbEntity
  8
Laag_1
 62
1
100
AcDbPolyline
 90
4
 70
1
 10
109.927310
 20
227.036078
 30
0.0
 10
114.622220
 20
226.417982
 30
0.0
 10
114.004120
 20
221.723084
 30
0.0
 10
109.309220
 20
222.341180
 30
0.0
  0
LWPOLYLINE
  5
148
100
AcDbEntity
  8
Laag_1
 62
1
100
AcDbPolyline
 90
4
 70
1
 10
100.132290
 20
197.367704
 30
0.0
 10
104.867710
 20
197.367704
 30
0.0
 10
104.867710
 20
192.632290
 30
0.0
 10
100.132290
 20
192.632290
 30
0.0
  0
LWPOLYLINE
  5
149
100
AcDbEntity
  8
Laag_1
 62
1
100
AcDbPolyline
 90
4
 70
1
 10
88.595255
 20
195.225390
 30
0.0
 10
93.169320
 20
196.451010
 30
0.0
 10
94.394935
 20
191.876950
 30
0.0
 10
89.820871
 20
190.651340
 30
0.0
  0
LWPOLYLINE
  5
14a
100
AcDbEntity
  8
Laag_1
 62
1
100
AcDbPolyline
 90
4
 70
1
 10
78.005806
 20
190.170080
 30
0.0
 10
82.106800
 20
192.537790
 30
0.0
 10
84.474507
 20
188.436800
 30
0.0
 10
80.373513
 20
186.069090
 30
0.0
  0
LWPOLYLINE
  5
14b
100
AcDbEntity
  8
Laag_1
 62
1
100
AcDbPolyline
 90
4
 70
1
 10
69.085596
 20
182.546270
 30
0.0
 10
72.434043
 20
185.894710
 30
0.0
 10
75.782486
 20
182.546270
 30
0.0
 10
72.434039
 20
179.197820
 30
0.0
  0
LWPOLYLINE
  5
14c
100
AcDbEntity
  8
Laag_1
 62
1
100
AcDbPolyline
 90
4
 70
1
 10
62.442521
 20
172.873510
 30
0.0
 10
64.810231
 20
176.974500
 30
0.0
 10
68.911220
 20
174.606800
 30
0.0
 10
66.543510
 20
170.505800
 30
0.0
  0
LWPOLYLINE
  5
14d
100
AcDbEntity
  8
Laag_1
 62
1
100
AcDbPolyline
 90
4
 70
1
 10
58.529298
 20
161.810990
 30
0.0
 10
59.754915
 20
166.385050
 30
0.0
 10
64.328974
 20
165.159440
 30
0.0
 10
63.103357
 20
160.585370
 30
0.0
  0
LWPOLYLINE
  5
14e
100
AcDbEntity
  8
Laag_1
 62
1
100
AcDbPolyline
 90
4
 70
1
 10
57.612606
 20
150.112600
 30
0.0
 10
57.612606
 20
154.848020
 30
0.0
 10
62.348020
 20
154.848020
 30
0.0
 10
62.348020
 20
150.112600
 30
0.0
  0
LWPOLYLINE
  5
14f
100
AcDbEntity
  8
Laag_1
 62
1
100
AcDbPolyline
 90
4
 70
1
 10
59.754915
 20
138.575570
 30
0.0
 10
58.529298
 20
143.149630
 30
0.0
 10
63.103357
 20
144.375250
 30
0.0
 10
64.328974
 20
139.801180
 30
0.0
  0
LWPOLYLINE
  5
150
100
AcDbEntity
  8
Laag_1
 62
1
100
AcDbPolyline
 90
4
 70
1
 10
64.810231
 20
127.986120
 30
0.0
 10
62.442521
 20
132.087110
 30
0.0
 10
66.543510
 20
134.454820
 30
0.0
 10
68.911220
 20
130.353820
 30
0.0
  0
LWPOLYLINE
  5
151
100
AcDbEntity
  8
Laag_1
 62
1
100
AcDbPolyline
 90
4
 70
1
 10
72.434043
 20
119.065910
 30
0.0
 10
69.085596
 20
122.414350
 30
0.0
 10
72.434039
 20
125.762800
 30
0.0
 10
75.782486
 20
122.414350
 30
0.0
  0
LWPOLYLINE
  5
152
100
AcDbEntity
  8
Laag_1
 62
1
100
AcDbPolyline
 90
4
 70
1
 10
82.106800
 20
112.422830
 30
0.0
 10
78.005806
 20
114.790540
 30
0.0
 10
80.373513
 20
118.891530
 30
0.0
 10
84.474507
 20
116.523820
 30
0.0
  0
LWPOLYLINE
  5
153
100
AcDbEntity
  8
Laag_1
 62
1
100
AcDbPolyline
 90
4
 70
1
 10
93.169320
 20
108.509610
 30
0.0
 10
88.595255
 20
109.735230
 30
0.0
 10
89.820871
 20
114.309280
 30
0.0
 10
94.394935
 20
113.083670
 30
0.0
  0
LWPOLYLINE
  5
154
100
AcDbEntity
  8
Laag_1
 62
1
100
AcDbPolyline
 90
4
 70
1
 10
104.867710
 20
107.592920
 30
0.0
 10
100.132290
 20
107.592920
 30
0.0
 10
100.132290
 20
112.328330
 30
0.0
 10
104.867710
 20
112.328330
 30
0.0
  0
LWPOLYLINE
  5
155
100
AcDbEntity
  8
Laag_1
 62
1
100
AcDbPolyline
 90
4
 70
1
 10
116.404740
 20
109.735230
 30
0.0
 10
111.830680
 20
108.509610
 30
0.0
 10
110.605060
 20
113.083670
 30
0.0
 10
115.179130
 20
114.309280
 30
0.0
  0
LWPOLYLINE
  5
156
100
AcDbEntity
  8
Laag_1
 62
1
100
AcDbPolyline
 90
4
 70
1
 10
126.994190
 20
114.790540
 30
0.0
 10
122.893200
 20
112.422830
 30
0.0
 10
120.525490
 20
116.523820
 30
0.0
 10
124.626490
 20
118.891530
 30
0.0
  0
LWPOLYLINE
  5
157
100
AcDbEntity
  8
Laag_1
 62
1
100
AcDbPolyline
 90
4
 70
1
 10
135.914400
 20
122.414350
 30
0.0
 10
132.565960
 20
119.065910
 30
0.0
 10
129.217510
 20
122.414350
 30
0.0
 10
132.565960
 20
125.762800
 30
0.0
  0
LWPOLYLINE
  5
158
100
AcDbEntity
  8
Laag_1
 62
1
100
AcDbPolyline
 90
4
 70
1
 10
142.557480
 20
132.087110
 30
0.0
 10
140.189770
 20
127.986120
 30
0.0
 10
136.088780
 20
130.353820
 30
0.0
 10
138.456490
 20
134.454820
 30
0.0
  0
LWPOLYLINE
  5
159
100
AcDbEntity
  8
Laag_1
 62
1
100
AcDbPolyline
 90
4
 70
1
 10
146.470700
 20
143.149630
 30
0.0
 10
145.245080
 20
138.575570
 30
0.0
 10
140.671030
 20
139.801180
 30
0.0
 10
141.896640
 20
144.375250
 30
0.0
  0
LWPOLYLINE
  5
15a
100
AcDbEntity
  8
Laag_1
 62
1
100
AcDbPolyline
 90
4
 70
1
 10
147.387390
 20
154.848020
 30
0.0
 10
147.387390
 20
150.112600
 30
0.0
 10
142.651980
 20
150.112600
 30
0.0
 10
142.651980
 20
154.848020
 30
0.0
  0
LWPOLYLINE
  5
15b
100
AcDbEntity
  8
Laag_1
 62
1
100
AcDbPolyline
 90
4
 70
1
 10
145.245080
 20
166.385050
 30
0.0
 10
146.470700
 20
161.810990
 30
0.0
 10
141.896640
 20
160.585370
 30
0.0
 10
140.671030
 20
165.159440
 30
0.0
  0
LWPOLYLINE
  5
15c
100
AcDbEntity
  8
Laag_1
 62
1
100
AcDbPolyline
 90
4
 70
1
 10
140.189770
 20
176.974500
 30
0.0
 10
142.557480
 20
172.873510
 30
0.0
 10
138.456490
 20
170.505800
 30
0.0
 10
136.088780
 20
174.606800
 30
0.0
  0
LWPOLYLINE
  5
15d
100
AcDbEntity
  8
Laag_1
 62
1
100
AcDbPolyline
 90
4
 70
1
 10
132.565960
 20
185.894710
 30
0.0
 10
135.914400
 20
182.546270
 30
0.0
 10
132.565960
 20
179.197820
 30
0.0
 10
129.217510
 20
182.546270
 30
0.0
  0
LWPOLYLINE
  5
15e
100
AcDbEntity
  8
Laag_1
 62
1
100
AcDbPolyline
 90
4
 70
1
 10
122.893200
 20
192.537790
 30
0.0
 10
126.994190
 20
190.170080
 30
0.0
 10
124.626490
 20
186.069090
 30
0.0
 10
120.525490
 20
188.436800
 30
0.0
  0
LWPOLYLINE
  5
15f
100
AcDbEntity
  8
Laag_1
 62
1
100
AcDbPolyline
 90
4
 70
1
 10
111.830680
 20
196.451010
 30
0.0
 10
116.404740
 20
195.225390
 30
0.0
 10
115.179130
 20
190.651340
 30
0.0
 10
110.605060
 20
191.876950
 30
0.0
  0
SPLINE
  5
160
100
AcDbEntity
  8
Laag_1
 62
1
100
AcDbSpline
 70
8
 71
3
 72
8
 73
4
 74
0
 40
0
 40
0
 40
0
 40
0
 40
1
 40
1
 40
1
 40
1
 10
184.867700
 20
244.867710
 30
0.0
 10
190.407700
 20
244.867710
 30
0.0
 10
194.867700
 20
240.407710
 30
0.0
 10
194.867700
 20
234.867710
 30
0.0
  0
LWPOLYLINE
  5
161
100
AcDbEntity
  8
Laag_1
 62
1
100
AcDbPolyline
 90
2
 70
0
 10
20.132292
 20
244.867710
 30
0.0
 10
184.867700
 20
244.867710
 30
0.0
  0
SPLINE
  5
162
100
AcDbEntity
  8
Laag_1
 62
1
100
AcDbSpline
 70
8
 71
3
 72
8
 73
4
 74
0
 40
0
 40
0
 40
0
 40
0
 40
1
 40
1
 40
1
 40
1
 10
194.867700
 20
70.132300
 30
0.0
 10
194.867700
 20
64.592300
 30
0.0
 10
190.407700
 20
60.132300
 30
0.0
 10
184.867700
 20
60.132300
 30
0.0
  0
LWPOLYLINE
  5
163
100
AcDbEntity
  8
Laag_1
 62
1
100
AcDbPolyline
 90
2
 70
0
 10
194.867700
 20
234.867710
 30
0.0
 10
194.867700
 20
70.132300
 30
0.0
  0
SPLINE
  5
164
100
AcDbEntity
  8
Laag_1
 62
1
100
AcDbSpline
 70
8
 71
3
 72
8
 73
4
 74
0
 40
0
 40
0
 40
0
 40
0
 40
1
 40
1
 40
1
 40
1
 10
20.132292
 20
60.132300
 30
0.0
 10
14.592292
 20
60.132300
 30
0.0
 10
10.132292
 20
64.592300
 30
0.0
 10
10.132292
 20
70.132300
 30
0.0
  0
LWPOLYLINE
  5
165
100
AcDbEntity
  8
Laag_1
 62
1
100
AcDbPolyline
 90
2
 70
0
 10
184.867700
 20
60.132300
 30
0.0
 10
20.132292
 20
60.132300
 30
0.0
  0
SPLINE
  5
166
100
AcDbEntity
  8
Laag_1
 62
1
100
AcDbSpline
 70
8
 71
3
 72
8
 73
4
 74
0
 40
0
 40
0
 40
0
 40
0
 40
1
 40
1
 40
1
 40
1
 10
10.132292
 20
234.867710
 30
0.0
 10
10.132292
 20
240.407710
 30
0.0
 10
14.592292
 20
244.867710
 30
0.0
 10
20.132292
 20
244.867710
 30
0.0
  0
LWPOLYLINE
  5
167
100
AcDbEntity
  8
Laag_1
 62
1
100
AcDbPolyline
 90
2
 70
0
 10
10.132292
 20
70.132300
 30
0.0
 10
10.132292
 20
234.867710
 30
0.0
  0
LWPOLYLINE
  5
168
100
AcDbEntity
  8
Laag_1
 62
1
100
AcDbPolyline
 90
1
 70
1
 10
20.132292
 20
244.867710
 30
0.0
  0
ENDSEC
  0
SECTION
  2
OBJECTS
  0
DICTIONARY
  5
C
330
0
100
AcDbDictionary
  3
ACAD_GROUP
350
D
  3
ACAD_MLINESTYLE
350
17
  0
DICTIONARY
  5
D
330
C
100
AcDbDictionary
  0
DICTIONARY
  5
1A
330
C
100
AcDbDictionary
  0
DICTIONARY
  5
17
330
C
100
AcDbDictionary
  3
STANDARD
350
18
  0
DICTIONARY
  5
19
330
C
100
AcDbDictionary
  0
ENDSEC
  0
EOF
