  0
SECTION
  2
HEADER
  9
$ACADVER
  1
AC1014
  9
$HANDSEED
  5
FFFF
  9
$MEASUREMENT
 70
     1
  0
ENDSEC
  0
SECTION
  2
TABLES
  0
TABLE
  2
VPORT
  5
8
330
0
100
AcDbSymbolTable
 70
     4
  0
VPORT
  5
2E
330
8
100
AcDbSymbolTableRecord
100
AcDbViewportTableRecord
  2
*ACTIVE
 70
     0
 10
0.0
 20
0.0
 11
1.0
 21
1.0
 12
210.0
 22
148.5
 13
0.0
 23
0.0
 14
10.0
 24
10.0
 15
10.0
 25
10.0
 16
0.0
 26
0.0
 36
1.0
 17
0.0
 27
0.0
 37
0.0
 40
341.0
 41
1.24
 42
50.0
 43
0.0
 44
0.0
 50
0.0
 51
0.0
 71
     0
 72
   100
 73
     1
 74
     3
 75
     0
 76
     0
 77
     0
 78
     0
  0
ENDTAB
  0
TABLE
  2
LTYPE
  5
5
330
0
100
AcDbSymbolTable
 70
     1
  0
LTYPE
  5
14
330
5
100
AcDbSymbolTableRecord
100
AcDbLinetypeTableRecord
  2
BYBLOCK
 70
     0
  3

 72
    65
 73
     0
 40
0.0
  0
LTYPE
  5
15
330
5
100
AcDbSymbolTableRecord
100
AcDbLinetypeTableRecord
  2
BYLAYER
 70
     0
  3

 72
    65
 73
     0
 40
0.0
  0
LTYPE
  5
16
330
5
100
AcDbSymbolTableRecord
100
AcDbLinetypeTableRecord
  2
CONTINUOUS
 70
     0
  3
Solid line
 72
    65
 73
     0
 40
0.0
  0
ENDTAB
  0
TABLE
  2
LAYER
  5
2
100
AcDbSymbolTable
 70
2
  0
LAYER
  5
50
100
AcDbSymbolTableRecord
100
AcDbLayerTableRecord
  2
0
 70
0
  6
CONTINUOUS
  0
LAYER
  5
51
100
AcDbSymbolTableRecord
100
AcDbLayerTableRecord
  2
Laag_1
 70
0
  6
CONTINUOUS
  0
ENDTAB
  0
TABLE
  2
STYLE
  5
3
330
0
100
AcDbSymbolTable
 70
     1
  0
STYLE
  5
11
330
3
100
AcDbSymbolTableRecord
100
AcDbTextStyleTableRecord
  2
STANDARD
 70
     0
 40
0.0
 41
1.0
 50
0.0
 71
     0
 42
2.5
  3
txt
  4

  0
ENDTAB
  0
TABLE
  2
VIEW
  5
6
330
0
100
AcDbSymbolTable
 70
     0
  0
ENDTAB
  0
TABLE
  2
UCS
  5
7
330
0
100
AcDbSymbolTable
 70
     0
  0
ENDTAB
  0
TABLE
  2
APPID
  5
9
330
0
100
AcDbSymbolTable
 70
     2
  0
APPID
  5
12
330
9
100
AcDbSymbolTableRecord
100
AcDbRegAppTableRecord
  2
ACAD
 70
     0
  0
ENDTAB
  0
TABLE
  2
DIMSTYLE
  5
A
330
0
100
AcDbSymbolTable
 70
     1
  0
DIMSTYLE
105
27
330
A
100
AcDbSymbolTableRecord
100
AcDbDimStyleTableRecord
  2
ISO-25
 70
     0
  3

  4

  5

  6

  7

 40
1.0
 41
2.5
 42
0.625
 43
3.75
 44
1.25
 45
0.0
 46
0.0
 47
0.0
 48
0.0
140
2.5
141
2.5
142
0.0
143
0.03937007874016
144
1.0
145
0.0
146
1.0
147
0.625
 71
     0
 72
     0
 73
     0
 74
     0
 75
     0
 76
     0
 77
     1
 78
     8
170
     0
171
     3
172
     1
173
     0
174
     0
175
     0
176
     0
177
     0
178
     0
270
     2
271
     2
272
     2
273
     2
274
     3
340
11
275
     0
280
     0
281
     0
282
     0
283
     0
284
     8
285
     0
286
     0
287
     3
288
     0
  0
ENDTAB
  0
TABLE
  2
BLOCK_RECORD
  5
1
330
0
100
AcDbSymbolTable
 70
     1
  0
BLOCK_RECORD
  5
1F
330
1
100
AcDbSymbolTableRecord
100
AcDbBlockTableRecord
  2
*MODEL_SPACE
  0
BLOCK_RECORD
  5
1B
330
1
100
AcDbSymbolTableRecord
100
AcDbBlockTableRecord
  2
*PAPER_SPACE
  0
ENDTAB
  0
ENDSEC
  0
SECTION
  2
BLOCKS
  0
BLOCK
  5
20
330
1F
100
AcDbEntity
  8
0
100
AcDbBlockBegin
  2
*MODEL_SPACE
 70
     0
 10
0.0
 20
0.0
 30
0.0
  3
*MODEL_SPACE
  1

  0
ENDBLK
  5
21
330
1F
100
AcDbEntity
  8
0
100
AcDbBlockEnd
  0
BLOCK
  5
1C
330
1B
100
AcDbEntity
 67
     1
  8
0
100
AcDbBlockBegin
  2
*PAPER_SPACE
  1

  0
ENDBLK
  5
1D
330
1B
100
AcDbEntity
 67
     1
  8
0
100
AcDbBlockEnd
  0
ENDSEC
  0
SECTION
  2
ENTITIES
  0
LWPOLYLINE
  5
100
100
AcDbEntity
  8
Laag_1
 62
3
100
AcDbPolyline
 90
2
 70
0
 10
105.000000
 20
231.735540
 30
0.0
 10
105.000000
 20
219.140104
 30
0.0
  0
LWPOLYLINE
  5
101
100
AcDbEntity
  8
Laag_1
 62
3
100
AcDbPolyline
 90
2
 70
0
 10
80.508787
 20
227.856513
 30
0.0
 10
84.400991
 20
215.877540
 30
0.0
  0
LWPOLYLINE
  5
102
100
AcDbEntity
  8
Laag_1
 62
3
100
AcDbPolyline
 90
2
 70
0
 10
58.414945
 20
216.599140
 30
0.0
 10
65.818356
 20
206.409220
 30
0.0
  0
LWPOLYLINE
  5
103
100
AcDbEntity
  8
Laag_1
 62
3
100
AcDbPolyline
 90
2
 70
0
 10
40.881172
 20
199.065370
 30
0.0
 10
51.071094
 20
191.661950
 30
0.0
  0
LWPOLYLINE
  5
104
100
AcDbEntity
  8
Laag_1
 62
3
100
AcDbPolyline
 90
2
 70
0
 10
29.623797
 20
176.971520
 30
0.0
 10
41.602769
 20
173.079320
 30
0.0
  0
LWPOLYLINE
  5
105
100
AcDbEntity
  8
Laag_1
 62
3
100
AcDbPolyline
 90
2
 70
0
 10
25.744770
 20
152.480310
 30
0.0
 10
38.340206
 20
152.480310
 30
0.0
  0
LWPOLYLINE
  5
106
100
AcDbEntity
  8
Laag_1
 62
3
100
AcDbPolyline
 90
2
 70
0
 10
29.623797
 20
127.989100
 30
0.0
 10
41.602769
 20
131.881300
 30
0.0
  0
LWPOLYLINE
  5
107
100
AcDbEntity
  8
Laag_1
 62
3
100
AcDbPolyline
 90
2
 70
0
 10
40.881172
 20
105.895250
 30
0.0
 10
51.071094
 20
113.298670
 30
0.0
  0
LWPOLYLINE
  5
108
100
AcDbEntity
  8
Laag_1
 62
3
100
AcDbPolyline
 90
2
 70
0
 10
58.414945
 20
88.361480
 30
0.0
 10
65.818356
 20
98.551400
 30
0.0
  0
LWPOLYLINE
  5
109
100
AcDbEntity
  8
Laag_1
 62
3
100
AcDbPolyline
 90
2
 70
0
 10
80.508787
 20
77.104110
 30
0.0
 10
84.400991
 20
89.083080
 30
0.0
  0
LWPOLYLINE
  5
10a
100
AcDbEntity
  8
Laag_1
 62
3
100
AcDbPolyline
 90
2
 70
0
 10
105.000000
 20
73.225080
 30
0.0
 10
105.000000
 20
85.820520
 30
0.0
  0
LWPOLYLINE
  5
10b
100
AcDbEntity
  8
Laag_1
 62
3
100
AcDbPolyline
 90
2
 70
0
 10
129.491210
 20
77.104110
 30
0.0
 10
125.599010
 20
89.083080
 30
0.0
  0
LWPOLYLINE
  5
10c
100
AcDbEntity
  8
Laag_1
 62
3
100
AcDbPolyline
 90
2
 70
0
 10
151.585060
 20
88.361480
 30
0.0
 10
144.181640
 20
98.551400
 30
0.0
  0
LWPOLYLINE
  5
10d
100
AcDbEntity
  8
Laag_1
 62
3
100
AcDbPolyline
 90
2
 70
0
 10
169.118830
 20
105.895250
 30
0.0
 10
158.928910
 20
113.298670
 30
0.0
  0
LWPOLYLINE
  5
10e
100
AcDbEntity
  8
Laag_1
 62
3
100
AcDbPolyline
 90
2
 70
0
 10
180.376200
 20
127.989100
 30
0.0
 10
168.397230
 20
131.881300
 30
0.0
  0
LWPOLYLINE
  5
10f
100
AcDbEntity
  8
Laag_1
 62
3
100
AcDbPolyline
 90
2
 70
0
 10
184.255230
 20
152.480310
 30
0.0
 10
171.659790
 20
152.480310
 30
0.0
  0
LWPOLYLINE
  5
110
100
AcDbEntity
  8
Laag_1
 62
3
100
AcDbPolyline
 90
2
 70
0
 10
180.376200
 20
176.971520
 30
0.0
 10
168.397230
 20
173.079320
 30
0.0
  0
LWPOLYLINE
  5
111
100
AcDbEntity
  8
Laag_1
 62
3
100
AcDbPolyline
 90
2
 70
0
 10
169.118830
 20
199.065370
 30
0.0
 10
158.928910
 20
191.661950
 30
0.0
  0
LWPOLYLINE
  5
112
100
AcDbEntity
  8
Laag_1
 62
3
100
AcDbPolyline
 90
2
 70
0
 10
151.585060
 20
216.599140
 30
0.0
 10
144.181640
 20
206.409220
 30
0.0
  0
LWPOLYLINE
  5
113
100
AcDbEntity
  8
Laag_1
 62
3
100
AcDbPolyline
 90
2
 70
0
 10
129.491210
 20
227.856513
 30
0.0
 10
125.599010
 20
215.877540
 30
0.0
  0
LWPOLYLINE
  5
114
100
AcDbEntity
  8
Laag_1
 62
1
100
AcDbPolyline
 90
4
 70
1
 10
102.632292
 20
237.367709
 30
0.0
 10
107.367702
 20
237.367709
 30
0.0
 10
107.367702
 20
232.632292
 30
0.0
 10
102.632292
 20
232.632292
 30
0.0
  0
LWPOLYLINE
  5
115
100
AcDbEntity
  8
Laag_1
 62
1
100
AcDbPolyline
 90
4
 70
1
 10
93.772113
 20
236.655194
 30
0.0
 10
98.481582
 20
237.150179
 30
0.0
 10
98.976568
 20
232.440703
 30
0.0
 10
94.267099
 20
231.945718
 30
0.0
  0
LWPOLYLINE
  5
116
100
AcDbEntity
  8
Laag_1
 62
1
100
AcDbPolyline
 90
4
 70
1
 10
85.034949
 20
235.020441
 30
0.0
 10
89.666879
 20
236.004989
 30
0.0
 10
90.651428
 20
231.373052
 30
0.0
 10
86.019498
 20
230.388505
 30
0.0
  0
LWPOLYLINE
  5
117
100
AcDbEntity
  8
Laag_1
 62
1
100
AcDbPolyline
 90
4
 70
1
 10
76.516527
 20
232.481362
 30
0.0
 10
81.020170
 20
233.944684
 30
0.0
 10
82.483494
 20
229.441035
 30
0.0
 10
77.979851
 20
227.977713
 30
0.0
  0
LWPOLYLINE
  5
118
100
AcDbEntity
  8
Laag_1
 62
1
100
AcDbPolyline
 90
4
 70
1
 10
68.310175
 20
229.065774
 30
0.0
 10
72.636188
 20
230.991839
 30
0.0
 10
74.562255
 20
226.665820
 30
0.0
 10
70.236243
 20
224.739755
 30
0.0
  0
LWPOLYLINE
  5
119
100
AcDbEntity
  8
Laag_1
 62
1
100
AcDbPolyline
 90
4
 70
1
 10
60.505805
 20
224.811100
 30
0.0
 10
64.606791
 20
227.178805
 30
0.0
 10
66.974499
 20
223.077814
 30
0.0
 10
62.873514
 20
220.710109
 30
0.0
  0
LWPOLYLINE
  5
11a
100
AcDbEntity
  8
Laag_1
 62
1
100
AcDbPolyline
 90
4
 70
1
 10
53.188923
 20
219.763955
 30
0.0
 10
57.019950
 20
222.547359
 30
0.0
 10
59.803358
 20
218.716326
 30
0.0
 10
55.972331
 20
215.932920
 30
0.0
  0
LWPOLYLINE
  5
11b
100
AcDbEntity
  8
Laag_1
 62
1
100
AcDbPolyline
 90
4
 70
1
 10
46.439693
 20
213.979640
 30
0.0
 10
49.958789
 20
217.148243
 30
0.0
 10
53.127401
 20
213.629140
 30
0.0
 10
49.608306
 20
210.460530
 30
0.0
  0
LWPOLYLINE
  5
11c
100
AcDbEntity
  8
Laag_1
 62
1
100
AcDbPolyline
 90
4
 70
1
 10
40.332063
 20
207.521520
 30
0.0
 10
43.500671
 20
211.040610
 30
0.0
 10
47.019771
 20
207.872000
 30
0.0
 10
43.851163
 20
204.352900
 30
0.0
  0
LWPOLYLINE
  5
11d
100
AcDbEntity
  8
Laag_1
 62
1
100
AcDbPolyline
 90
4
 70
1
 10
34.932948
 20
200.460360
 30
0.0
 10
37.716352
 20
204.291380
 30
0.0
 10
41.547385
 20
201.507970
 30
0.0
 10
38.763981
 20
197.676950
 30
0.0
  0
LWPOLYLINE
  5
11e
100
AcDbEntity
  8
Laag_1
 62
1
100
AcDbPolyline
 90
4
 70
1
 10
30.301502
 20
192.873510
 30
0.0
 10
32.669207
 20
196.974500
 30
0.0
 10
36.770198
 20
194.606790
 30
0.0
 10
34.402493
 20
190.505810
 30
0.0
  0
LWPOLYLINE
  5
11f
100
AcDbEntity
  8
Laag_1
 62
1
100
AcDbPolyline
 90
4
 70
1
 10
26.488469
 20
184.844120
 30
0.0
 10
28.414533
 20
189.170130
 30
0.0
 10
32.740552
 20
187.244060
 30
0.0
 10
30.814487
 20
182.918050
 30
0.0
  0
LWPOLYLINE
  5
120
100
AcDbEntity
  8
Laag_1
 62
1
100
AcDbPolyline
 90
4
 70
1
 10
23.535624
 20
176.460130
 30
0.0
 10
24.998946
 20
180.963780
 30
0.0
 10
29.502595
 20
179.500450
 30
0.0
 10
28.039273
 20
174.996810
 30
0.0
  0
LWPOLYLINE
  5
121
100
AcDbEntity
  8
Laag_1
 62
1
100
AcDbPolyline
 90
4
 70
1
 10
21.475320
 20
167.813420
 30
0.0
 10
22.459867
 20
172.445350
 30
0.0
 10
27.091804
 20
171.460810
 30
0.0
 10
26.107257
 20
166.828880
 30
0.0
  0
LWPOLYLINE
  5
122
100
AcDbEntity
  8
Laag_1
 62
1
100
AcDbPolyline
 90
4
 70
1
 10
20.330130
 20
158.998720
 30
0.0
 10
20.825115
 20
163.708190
 30
0.0
 10
25.534591
 20
163.213200
 30
0.0
 10
25.039606
 20
158.503740
 30
0.0
  0
LWPOLYLINE
  5
123
100
AcDbEntity
  8
Laag_1
 62
1
100
AcDbPolyline
 90
4
 70
1
 10
20.112601
 20
150.112600
 30
0.0
 10
20.112601
 20
154.848010
 30
0.0
 10
24.848018
 20
154.848010
 30
0.0
 10
24.848018
 20
150.112600
 30
0.0
  0
LWPOLYLINE
  5
124
100
AcDbEntity
  8
Laag_1
 62
1
100
AcDbPolyline
 90
4
 70
1
 10
20.825116
 20
141.252420
 30
0.0
 10
20.330131
 20
145.961890
 30
0.0
 10
25.039607
 20
146.456880
 30
0.0
 10
25.534592
 20
141.747410
 30
0.0
  0
LWPOLYLINE
  5
125
100
AcDbEntity
  8
Laag_1
 62
1
100
AcDbPolyline
 90
4
 70
1
 10
22.459869
 20
132.515260
 30
0.0
 10
21.475321
 20
137.147190
 30
0.0
 10
26.107258
 20
138.131740
 30
0.0
 10
27.091805
 20
133.499810
 30
0.0
  0
LWPOLYLINE
  5
126
100
AcDbEntity
  8
Laag_1
 62
1
100
AcDbPolyline
 90
4
 70
1
 10
24.998948
 20
123.996840
 30
0.0
 10
23.535626
 20
128.500480
 30
0.0
 10
28.039275
 20
129.963800
 30
0.0
 10
29.502597
 20
125.460160
 30
0.0
  0
LWPOLYLINE
  5
127
100
AcDbEntity
  8
Laag_1
 62
1
100
AcDbPolyline
 90
4
 70
1
 10
28.414536
 20
115.790490
 30
0.0
 10
26.488471
 20
120.116500
 30
0.0
 10
30.814490
 20
122.042570
 30
0.0
 10
32.740555
 20
117.716550
 30
0.0
  0
LWPOLYLINE
  5
128
100
AcDbEntity
  8
Laag_1
 62
1
100
AcDbPolyline
 90
4
 70
1
 10
32.669210
 20
107.986120
 30
0.0
 10
30.301505
 20
112.087100
 30
0.0
 10
34.402496
 20
114.454810
 30
0.0
 10
36.770201
 20
110.353820
 30
0.0
  0
LWPOLYLINE
  5
129
100
AcDbEntity
  8
Laag_1
 62
1
100
AcDbPolyline
 90
4
 70
1
 10
37.716355
 20
100.669230
 30
0.0
 10
34.932951
 20
104.500260
 30
0.0
 10
38.763984
 20
107.283670
 30
0.0
 10
41.547388
 20
103.452640
 30
0.0
  0
LWPOLYLINE
  5
12a
100
AcDbEntity
  8
Laag_1
 62
1
100
AcDbPolyline
 90
4
 70
1
 10
43.500675
 20
93.920000
 30
0.0
 10
40.332067
 20
97.439100
 30
0.0
 10
43.851167
 20
100.607710
 30
0.0
 10
47.019775
 20
97.088620
 30
0.0
  0
LWPOLYLINE
  5
12b
100
AcDbEntity
  8
Laag_1
 62
1
100
AcDbPolyline
 90
4
 70
1
 10
49.958793
 20
87.812370
 30
0.0
 10
46.439698
 20
90.980980
 30
0.0
 10
49.608310
 20
94.500080
 30
0.0
 10
53.127406
 20
91.331470
 30
0.0
  0
LWPOLYLINE
  5
12c
100
AcDbEntity
  8
Laag_1
 62
1
100
AcDbPolyline
 90
4
 70
1
 10
57.019955
 20
82.413260
 30
0.0
 10
53.188928
 20
85.196660
 30
0.0
 10
55.972336
 20
89.027690
 30
0.0
 10
59.803363
 20
86.244290
 30
0.0
  0
LWPOLYLINE
  5
12d
100
AcDbEntity
  8
Laag_1
 62
1
100
AcDbPolyline
 90
4
 70
1
 10
64.606796
 20
77.781810
 30
0.0
 10
60.505810
 20
80.149520
 30
0.0
 10
62.873519
 20
84.250510
 30
0.0
 10
66.974504
 20
81.882800
 30
0.0
  0
LWPOLYLINE
  5
12e
100
AcDbEntity
  8
Laag_1
 62
1
100
AcDbPolyline
 90
4
 70
1
 10
72.636193
 20
73.968780
 30
0.0
 10
68.310181
 20
75.894840
 30
0.0
 10
70.236248
 20
80.220860
 30
0.0
 10
74.562261
 20
78.294800
 30
0.0
  0
LWPOLYLINE
  5
12f
100
AcDbEntity
  8
Laag_1
 62
1
100
AcDbPolyline
 90
4
 70
1
 10
81.020175
 20
71.015930
 30
0.0
 10
76.516533
 20
72.479260
 30
0.0
 10
77.979857
 20
76.982910
 30
0.0
 10
82.483500
 20
75.519580
 30
0.0
  0
LWPOLYLINE
  5
130
100
AcDbEntity
  8
Laag_1
 62
1
100
AcDbPolyline
 90
4
 70
1
 10
89.666885
 20
68.955630
 30
0.0
 10
85.034955
 20
69.940180
 30
0.0
 10
86.019504
 20
74.572110
 30
0.0
 10
90.651434
 20
73.587570
 30
0.0
  0
LWPOLYLINE
  5
131
100
AcDbEntity
  8
Laag_1
 62
1
100
AcDbPolyline
 90
4
 70
1
 10
98.481588
 20
67.810440
 30
0.0
 10
93.772119
 20
68.305430
 30
0.0
 10
94.267105
 20
73.014900
 30
0.0
 10
98.976574
 20
72.519920
 30
0.0
  0
LWPOLYLINE
  5
132
100
AcDbEntity
  8
Laag_1
 62
1
100
AcDbPolyline
 90
4
 70
1
 10
107.367708
 20
67.592910
 30
0.0
 10
102.632298
 20
67.592910
 30
0.0
 10
102.632298
 20
72.328330
 30
0.0
 10
107.367708
 20
72.328330
 30
0.0
  0
LWPOLYLINE
  5
133
100
AcDbEntity
  8
Laag_1
 62
1
100
AcDbPolyline
 90
4
 70
1
 10
116.227890
 20
68.305430
 30
0.0
 10
111.518418
 20
67.810440
 30
0.0
 10
111.023432
 20
72.519920
 30
0.0
 10
115.732900
 20
73.014900
 30
0.0
  0
LWPOLYLINE
  5
134
100
AcDbEntity
  8
Laag_1
 62
1
100
AcDbPolyline
 90
4
 70
1
 10
124.965050
 20
69.940180
 30
0.0
 10
120.333120
 20
68.955630
 30
0.0
 10
119.348570
 20
73.587570
 30
0.0
 10
123.980500
 20
74.572120
 30
0.0
  0
LWPOLYLINE
  5
135
100
AcDbEntity
  8
Laag_1
 62
1
100
AcDbPolyline
 90
4
 70
1
 10
133.483470
 20
72.479260
 30
0.0
 10
128.979830
 20
71.015940
 30
0.0
 10
127.516510
 20
75.519590
 30
0.0
 10
132.020150
 20
76.982910
 30
0.0
  0
LWPOLYLINE
  5
136
100
AcDbEntity
  8
Laag_1
 62
1
100
AcDbPolyline
 90
4
 70
1
 10
141.689820
 20
75.894850
 30
0.0
 10
137.363810
 20
73.968780
 30
0.0
 10
135.437740
 20
78.294800
 30
0.0
 10
139.763760
 20
80.220860
 30
0.0
  0
LWPOLYLINE
  5
137
100
AcDbEntity
  8
Laag_1
 62
1
100
AcDbPolyline
 90
4
 70
1
 10
149.494190
 20
80.149520
 30
0.0
 10
145.393210
 20
77.781820
 30
0.0
 10
143.025500
 20
81.882810
 30
0.0
 10
147.126490
 20
84.250510
 30
0.0
  0
LWPOLYLINE
  5
138
100
AcDbEntity
  8
Laag_1
 62
1
100
AcDbPolyline
 90
4
 70
1
 10
156.811080
 20
85.196670
 30
0.0
 10
152.980050
 20
82.413260
 30
0.0
 10
150.196640
 20
86.244290
 30
0.0
 10
154.027670
 20
89.027700
 30
0.0
  0
LWPOLYLINE
  5
139
100
AcDbEntity
  8
Laag_1
 62
1
100
AcDbPolyline
 90
4
 70
1
 10
163.560310
 20
90.980980
 30
0.0
 10
160.041210
 20
87.812380
 30
0.0
 10
156.872600
 20
91.331480
 30
0.0
 10
160.391690
 20
94.500090
 30
0.0
  0
LWPOLYLINE
  5
13a
100
AcDbEntity
  8
Laag_1
 62
1
100
AcDbPolyline
 90
4
 70
1
 10
169.667940
 20
97.439100
 30
0.0
 10
166.499330
 20
93.920010
 30
0.0
 10
162.980230
 20
97.088620
 30
0.0
 10
166.148840
 20
100.607720
 30
0.0
  0
LWPOLYLINE
  5
13b
100
AcDbEntity
  8
Laag_1
 62
1
100
AcDbPolyline
 90
4
 70
1
 10
175.067050
 20
104.500260
 30
0.0
 10
172.283650
 20
100.669240
 30
0.0
 10
168.452620
 20
103.452650
 30
0.0
 10
171.236020
 20
107.283670
 30
0.0
  0
LWPOLYLINE
  5
13c
100
AcDbEntity
  8
Laag_1
 62
1
100
AcDbPolyline
 90
4
 70
1
 10
179.698500
 20
112.087110
 30
0.0
 10
177.330790
 20
107.986120
 30
0.0
 10
173.229800
 20
110.353830
 30
0.0
 10
175.597510
 20
114.454810
 30
0.0
  0
LWPOLYLINE
  5
13d
100
AcDbEntity
  8
Laag_1
 62
1
100
AcDbPolyline
 90
4
 70
1
 10
183.511530
 20
120.116500
 30
0.0
 10
181.585470
 20
115.790490
 30
0.0
 10
177.259450
 20
117.716560
 30
0.0
 10
179.185510
 20
122.042570
 30
0.0
  0
LWPOLYLINE
  5
13e
100
AcDbEntity
  8
Laag_1
 62
1
100
AcDbPolyline
 90
4
 70
1
 10
186.464380
 20
128.500490
 30
0.0
 10
185.001050
 20
123.996840
 30
0.0
 10
180.497400
 20
125.460170
 30
0.0
 10
181.960730
 20
129.963810
 30
0.0
  0
LWPOLYLINE
  5
13f
100
AcDbEntity
  8
Laag_1
 62
1
100
AcDbPolyline
 90
4
 70
1
 10
188.524680
 20
137.147200
 30
0.0
 10
187.540130
 20
132.515270
 30
0.0
 10
182.908200
 20
133.499810
 30
0.0
 10
183.892740
 20
138.131740
 30
0.0
  0
LWPOLYLINE
  5
140
100
AcDbEntity
  8
Laag_1
 62
1
100
AcDbPolyline
 90
4
 70
1
 10
189.669870
 20
145.961900
 30
0.0
 10
189.174880
 20
141.252430
 30
0.0
 10
184.465410
 20
141.747420
 30
0.0
 10
184.960390
 20
146.456880
 30
0.0
  0
LWPOLYLINE
  5
141
100
AcDbEntity
  8
Laag_1
 62
1
100
AcDbPolyline
 90
4
 70
1
 10
189.887400
 20
154.848020
 30
0.0
 10
189.887400
 20
150.112610
 30
0.0
 10
185.151980
 20
150.112610
 30
0.0
 10
185.151980
 20
154.848020
 30
0.0
  0
LWPOLYLINE
  5
142
100
AcDbEntity
  8
Laag_1
 62
1
100
AcDbPolyline
 90
4
 70
1
 10
189.174880
 20
163.708200
 30
0.0
 10
189.669870
 20
158.998730
 30
0.0
 10
184.960390
 20
158.503740
 30
0.0
 10
184.465410
 20
163.213210
 30
0.0
  0
LWPOLYLINE
  5
143
100
AcDbEntity
  8
Laag_1
 62
1
100
AcDbPolyline
 90
4
 70
1
 10
187.540130
 20
172.445360
 30
0.0
 10
188.524680
 20
167.813430
 30
0.0
 10
183.892740
 20
166.828880
 30
0.0
 10
182.908190
 20
171.460810
 30
0.0
  0
LWPOLYLINE
  5
144
100
AcDbEntity
  8
Laag_1
 62
1
100
AcDbPolyline
 90
4
 70
1
 10
185.001050
 20
180.963780
 30
0.0
 10
186.464370
 20
176.460140
 30
0.0
 10
181.960720
 20
174.996820
 30
0.0
 10
180.497400
 20
179.500460
 30
0.0
  0
LWPOLYLINE
  5
145
100
AcDbEntity
  8
Laag_1
 62
1
100
AcDbPolyline
 90
4
 70
1
 10
181.585460
 20
189.170130
 30
0.0
 10
183.511530
 20
184.844120
 30
0.0
 10
179.185510
 20
182.918050
 30
0.0
 10
177.259450
 20
187.244070
 30
0.0
  0
LWPOLYLINE
  5
146
100
AcDbEntity
  8
Laag_1
 62
1
100
AcDbPolyline
 90
4
 70
1
 10
177.330790
 20
196.974500
 30
0.0
 10
179.698490
 20
192.873520
 30
0.0
 10
175.597500
 20
190.505810
 30
0.0
 10
173.229800
 20
194.606800
 30
0.0
  0
LWPOLYLINE
  5
147
100
AcDbEntity
  8
Laag_1
 62
1
100
AcDbPolyline
 90
4
 70
1
 10
172.283640
 20
204.291390
 30
0.0
 10
175.067050
 20
200.460360
 30
0.0
 10
171.236020
 20
197.676950
 30
0.0
 10
168.452610
 20
201.507980
 30
0.0
  0
LWPOLYLINE
  5
148
100
AcDbEntity
  8
Laag_1
 62
1
100
AcDbPolyline
 90
4
 70
1
 10
166.499330
 20
211.040620
 30
0.0
 10
169.667930
 20
207.521520
 30
0.0
 10
166.148830
 20
204.352910
 30
0.0
 10
162.980220
 20
207.872000
 30
0.0
  0
LWPOLYLINE
  5
149
100
AcDbEntity
  8
Laag_1
 62
1
100
AcDbPolyline
 90
4
 70
1
 10
160.041210
 20
217.148247
 30
0.0
 10
163.560300
 20
213.979640
 30
0.0
 10
160.391690
 20
210.460540
 30
0.0
 10
156.872590
 20
213.629150
 30
0.0
  0
LWPOLYLINE
  5
14a
100
AcDbEntity
  8
Laag_1
 62
1
100
AcDbPolyline
 90
4
 70
1
 10
152.980050
 20
222.547362
 30
0.0
 10
156.811070
 20
219.763958
 30
0.0
 10
154.027660
 20
215.932930
 30
0.0
 10
150.196640
 20
218.716329
 30
0.0
  0
LWPOLYLINE
  5
14b
100
AcDbEntity
  8
Laag_1
 62
1
100
AcDbPolyline
 90
4
 70
1
 10
145.393200
 20
227.178808
 30
0.0
 10
149.494190
 20
224.811103
 30
0.0
 10
147.126480
 20
220.710112
 30
0.0
 10
143.025500
 20
223.077817
 30
0.0
  0
LWPOLYLINE
  5
14c
100
AcDbEntity
  8
Laag_1
 62
1
100
AcDbPolyline
 90
4
 70
1
 10
137.363810
 20
230.991841
 30
0.0
 10
141.689820
 20
229.065777
 30
0.0
 10
139.763750
 20
224.739758
 30
0.0
 10
135.437740
 20
226.665823
 30
0.0
  0
LWPOLYLINE
  5
14d
100
AcDbEntity
  8
Laag_1
 62
1
100
AcDbPolyline
 90
4
 70
1
 10
128.979820
 20
233.944686
 30
0.0
 10
133.483470
 20
232.481364
 30
0.0
 10
132.020140
 20
227.977715
 30
0.0
 10
127.516500
 20
229.441037
 30
0.0
  0
LWPOLYLINE
  5
14e
100
AcDbEntity
  8
Laag_1
 62
1
100
AcDbPolyline
 90
4
 70
1
 10
120.333110
 20
236.004990
 30
0.0
 10
124.965040
 20
235.020443
 30
0.0
 10
123.980500
 20
230.388506
 30
0.0
 10
119.348570
 20
231.373053
 30
0.0
  0
LWPOLYLINE
  5
14f
100
AcDbEntity
  8
Laag_1
 62
1
100
AcDbPolyline
 90
4
 70
1
 10
111.518412
 20
237.150180
 30
0.0
 10
116.227880
 20
236.655195
 30
0.0
 10
115.732890
 20
231.945719
 30
0.0
 10
111.023426
 20
232.440704
 30
0.0
  0
LWPOLYLINE
  5
150
100
AcDbEntity
  8
Laag_1
 62
1
100
AcDbPolyline
 90
4
 70
1
 10
102.632292
 20
217.367716
 30
0.0
 10
107.367712
 20
217.367716
 30
0.0
 10
107.367712
 20
212.632290
 30
0.0
 10
102.632292
 20
212.632290
 30
0.0
  0
LWPOLYLINE
  5
151
100
AcDbEntity
  8
Laag_1
 62
1
100
AcDbPolyline
 90
4
 70
1
 10
92.510816
 20
216.198450
 30
0.0
 10
97.187935
 20
216.939240
 30
0.0
 10
97.928719
 20
212.262110
 30
0.0
 10
93.251600
 20
211.521330
 30
0.0
  0
LWPOLYLINE
  5
152
100
AcDbEntity
  8
Laag_1
 62
1
100
AcDbPolyline
 90
4
 70
1
 10
82.696865
 20
213.460240
 30
0.0
 10
87.200517
 20
214.923560
 30
0.0
 10
88.663844
 20
210.419910
 30
0.0
 10
84.160192
 20
208.956580
 30
0.0
  0
LWPOLYLINE
  5
153
100
AcDbEntity
  8
Laag_1
 62
1
100
AcDbPolyline
 90
4
 70
1
 10
73.432091
 20
209.220500
 30
0.0
 10
77.651381
 20
211.370330
 30
0.0
 10
79.801219
 20
207.151040
 30
0.0
 10
75.581929
 20
205.001200
 30
0.0
  0
LWPOLYLINE
  5
154
100
AcDbEntity
  8
Laag_1
 62
1
100
AcDbPolyline
 90
4
 70
1
 10
64.944624
 20
203.583620
 30
0.0
 10
68.775659
 20
206.367030
 30
0.0
 10
71.559073
 20
202.535990
 30
0.0
 10
67.728037
 20
199.752580
 30
0.0
  0
LWPOLYLINE
  5
155
100
AcDbEntity
  8
Laag_1
 62
1
100
AcDbPolyline
 90
4
 70
1
 10
57.443453
 20
196.688410
 30
0.0
 10
60.791900
 20
200.036860
 30
0.0
 10
64.140352
 20
196.688410
 30
0.0
 10
60.791905
 20
193.339960
 30
0.0
  0
LWPOLYLINE
  5
156
100
AcDbEntity
  8
Laag_1
 62
1
100
AcDbPolyline
 90
4
 70
1
 10
51.113282
 20
188.704650
 30
0.0
 10
53.896692
 20
192.535690
 30
0.0
 10
57.727732
 20
189.752280
 30
0.0
 10
54.944322
 20
185.921240
 30
0.0
  0
LWPOLYLINE
  5
157
100
AcDbEntity
  8
Laag_1
 62
1
100
AcDbPolyline
 90
4
 70
1
 10
46.109981
 20
179.828930
 30
0.0
 10
48.259817
 20
184.048220
 30
0.0
 10
52.479112
 20
181.898380
 30
0.0
 10
50.329276
 20
177.679090
 30
0.0
  0
LWPOLYLINE
  5
158
100
AcDbEntity
  8
Laag_1
 62
1
100
AcDbPolyline
 90
4
 70
1
 10
42.556748
 20
170.279800
 30
0.0
 10
44.020073
 20
174.783450
 30
0.0
 10
48.523731
 20
173.320120
 30
0.0
 10
47.060405
 20
168.816470
 30
0.0
  0
LWPOLYLINE
  5
159
100
AcDbEntity
  8
Laag_1
 62
1
100
AcDbPolyline
 90
4
 70
1
 10
40.541075
 20
160.292380
 30
0.0
 10
41.281857
 20
164.969500
 30
0.0
 10
45.958982
 20
164.228710
 30
0.0
 10
45.218200
 20
159.551600
 30
0.0
  0
LWPOLYLINE
  5
15a
100
AcDbEntity
  8
Laag_1
 62
1
100
AcDbPolyline
 90
4
 70
1
 10
40.112594
 20
150.112600
 30
0.0
 10
40.112594
 20
154.848020
 30
0.0
 10
44.848020
 20
154.848020
 30
0.0
 10
44.848020
 20
150.112600
 30
0.0
  0
LWPOLYLINE
  5
15b
100
AcDbEntity
  8
Laag_1
 62
1
100
AcDbPolyline
 90
4
 70
1
 10
41.281857
 20
139.991130
 30
0.0
 10
40.541074
 20
144.668240
 30
0.0
 10
45.218199
 20
145.409030
 30
0.0
 10
45.958982
 20
140.731910
 30
0.0
  0
LWPOLYLINE
  5
15c
100
AcDbEntity
  8
Laag_1
 62
1
100
AcDbPolyline
 90
4
 70
1
 10
44.020072
 20
130.177170
 30
0.0
 10
42.556746
 20
134.680830
 30
0.0
 10
47.060404
 20
136.144150
 30
0.0
 10
48.523729
 20
131.640500
 30
0.0
  0
LWPOLYLINE
  5
15d
100
AcDbEntity
  8
Laag_1
 62
1
100
AcDbPolyline
 90
4
 70
1
 10
48.259815
 20
120.912400
 30
0.0
 10
46.109979
 20
125.131690
 30
0.0
 10
50.329275
 20
127.281530
 30
0.0
 10
52.479110
 20
123.062240
 30
0.0
  0
LWPOLYLINE
  5
15e
100
AcDbEntity
  8
Laag_1
 62
1
100
AcDbPolyline
 90
4
 70
1
 10
53.896690
 20
112.424930
 30
0.0
 10
51.113280
 20
116.255970
 30
0.0
 10
54.944320
 20
119.039380
 30
0.0
 10
57.727730
 20
115.208350
 30
0.0
  0
LWPOLYLINE
  5
15f
100
AcDbEntity
  8
Laag_1
 62
1
100
AcDbPolyline
 90
4
 70
1
 10
60.791898
 20
104.923760
 30
0.0
 10
57.443450
 20
108.272210
 30
0.0
 10
60.791902
 20
111.620660
 30
0.0
 10
64.140349
 20
108.272210
 30
0.0
  0
LWPOLYLINE
  5
160
100
AcDbEntity
  8
Laag_1
 62
1
100
AcDbPolyline
 90
4
 70
1
 10
68.775656
 20
98.593590
 30
0.0
 10
64.944620
 20
101.377000
 30
0.0
 10
67.728034
 20
105.208040
 30
0.0
 10
71.559069
 20
102.424630
 30
0.0
  0
LWPOLYLINE
  5
161
100
AcDbEntity
  8
Laag_1
 62
1
100
AcDbPolyline
 90
4
 70
1
 10
77.651377
 20
93.590290
 30
0.0
 10
73.432087
 20
95.740130
 30
0.0
 10
75.581926
 20
99.959420
 30
0.0
 10
79.801216
 20
97.809590
 30
0.0
  0
LWPOLYLINE
  5
162
100
AcDbEntity
  8
Laag_1
 62
1
100
AcDbPolyline
 90
4
 70
1
 10
87.200513
 20
90.037060
 30
0.0
 10
82.696861
 20
91.500380
 30
0.0
 10
84.160188
 20
96.004040
 30
0.0
 10
88.663840
 20
94.540720
 30
0.0
  0
LWPOLYLINE
  5
163
100
AcDbEntity
  8
Laag_1
 62
1
100
AcDbPolyline
 90
4
 70
1
 10
97.187931
 20
88.021380
 30
0.0
 10
92.510812
 20
88.762170
 30
0.0
 10
93.251596
 20
93.439290
 30
0.0
 10
97.928715
 20
92.698510
 30
0.0
  0
LWPOLYLINE
  5
164
100
AcDbEntity
  8
Laag_1
 62
1
100
AcDbPolyline
 90
4
 70
1
 10
107.367708
 20
87.592900
 30
0.0
 10
102.632288
 20
87.592900
 30
0.0
 10
102.632288
 20
92.328330
 30
0.0
 10
107.367708
 20
92.328330
 30
0.0
  0
LWPOLYLINE
  5
165
100
AcDbEntity
  8
Laag_1
 62
1
100
AcDbPolyline
 90
4
 70
1
 10
117.489180
 20
88.762170
 30
0.0
 10
112.812070
 20
88.021380
 30
0.0
 10
112.071281
 20
92.698510
 30
0.0
 10
116.748400
 20
93.439290
 30
0.0
  0
LWPOLYLINE
  5
166
100
AcDbEntity
  8
Laag_1
 62
1
100
AcDbPolyline
 90
4
 70
1
 10
127.303140
 20
91.500380
 30
0.0
 10
122.799480
 20
90.037060
 30
0.0
 10
121.336160
 20
94.540710
 30
0.0
 10
125.839810
 20
96.004040
 30
0.0
  0
LWPOLYLINE
  5
167
100
AcDbEntity
  8
Laag_1
 62
1
100
AcDbPolyline
 90
4
 70
1
 10
136.567910
 20
95.740120
 30
0.0
 10
132.348620
 20
93.590290
 30
0.0
 10
130.198780
 20
97.809580
 30
0.0
 10
134.418070
 20
99.959420
 30
0.0
  0
LWPOLYLINE
  5
168
100
AcDbEntity
  8
Laag_1
 62
1
100
AcDbPolyline
 90
4
 70
1
 10
145.055380
 20
101.377000
 30
0.0
 10
141.224340
 20
98.593590
 30
0.0
 10
138.440930
 20
102.424630
 30
0.0
 10
142.271960
 20
105.208040
 30
0.0
  0
LWPOLYLINE
  5
169
100
AcDbEntity
  8
Laag_1
 62
1
100
AcDbPolyline
 90
4
 70
1
 10
152.556550
 20
108.272210
 30
0.0
 10
149.208100
 20
104.923760
 30
0.0
 10
145.859650
 20
108.272210
 30
0.0
 10
149.208100
 20
111.620660
 30
0.0
  0
LWPOLYLINE
  5
16a
100
AcDbEntity
  8
Laag_1
 62
1
100
AcDbPolyline
 90
4
 70
1
 10
158.886720
 20
116.255970
 30
0.0
 10
156.103310
 20
112.424930
 30
0.0
 10
152.272270
 20
115.208340
 30
0.0
 10
155.055680
 20
119.039380
 30
0.0
  0
LWPOLYLINE
  5
16b
100
AcDbEntity
  8
Laag_1
 62
1
100
AcDbPolyline
 90
4
 70
1
 10
163.890020
 20
125.131690
 30
0.0
 10
161.740180
 20
120.912400
 30
0.0
 10
157.520890
 20
123.062240
 30
0.0
 10
159.670720
 20
127.281530
 30
0.0
  0
LWPOLYLINE
  5
16c
100
AcDbEntity
  8
Laag_1
 62
1
100
AcDbPolyline
 90
4
 70
1
 10
167.443250
 20
134.680820
 30
0.0
 10
165.979930
 20
130.177170
 30
0.0
 10
161.476270
 20
131.640500
 30
0.0
 10
162.939590
 20
136.144150
 30
0.0
  0
LWPOLYLINE
  5
16d
100
AcDbEntity
  8
Laag_1
 62
1
100
AcDbPolyline
 90
4
 70
1
 10
169.458930
 20
144.668240
 30
0.0
 10
168.718140
 20
139.991120
 30
0.0
 10
164.041020
 20
140.731910
 30
0.0
 10
164.781800
 20
145.409020
 30
0.0
  0
LWPOLYLINE
  5
16e
100
AcDbEntity
  8
Laag_1
 62
1
100
AcDbPolyline
 90
4
 70
1
 10
169.887410
 20
154.848020
 30
0.0
 10
169.887410
 20
150.112600
 30
0.0
 10
165.151980
 20
150.112600
 30
0.0
 10
165.151980
 20
154.848020
 30
0.0
  0
LWPOLYLINE
  5
16f
100
AcDbEntity
  8
Laag_1
 62
1
100
AcDbPolyline
 90
4
 70
1
 10
168.718140
 20
164.969490
 30
0.0
 10
169.458930
 20
160.292380
 30
0.0
 10
164.781800
 20
159.551590
 30
0.0
 10
164.041020
 20
164.228710
 30
0.0
  0
LWPOLYLINE
  5
170
100
AcDbEntity
  8
Laag_1
 62
1
100
AcDbPolyline
 90
4
 70
1
 10
165.979930
 20
174.783450
 30
0.0
 10
167.443250
 20
170.279790
 30
0.0
 10
162.939600
 20
168.816470
 30
0.0
 10
161.476270
 20
173.320120
 30
0.0
  0
LWPOLYLINE
  5
171
100
AcDbEntity
  8
Laag_1
 62
1
100
AcDbPolyline
 90
4
 70
1
 10
161.740190
 20
184.048220
 30
0.0
 10
163.890020
 20
179.828930
 30
0.0
 10
159.670730
 20
177.679090
 30
0.0
 10
157.520890
 20
181.898380
 30
0.0
  0
LWPOLYLINE
  5
172
100
AcDbEntity
  8
Laag_1
 62
1
100
AcDbPolyline
 90
4
 70
1
 10
156.103310
 20
192.535690
 30
0.0
 10
158.886720
 20
188.704650
 30
0.0
 10
155.055680
 20
185.921240
 30
0.0
 10
152.272270
 20
189.752270
 30
0.0
  0
LWPOLYLINE
  5
173
100
AcDbEntity
  8
Laag_1
 62
1
100
AcDbPolyline
 90
4
 70
1
 10
149.208100
 20
200.036860
 30
0.0
 10
152.556550
 20
196.688410
 30
0.0
 10
149.208100
 20
193.339960
 30
0.0
 10
145.859650
 20
196.688410
 30
0.0
  0
LWPOLYLINE
  5
174
100
AcDbEntity
  8
Laag_1
 62
1
100
AcDbPolyline
 90
4
 70
1
 10
141.224340
 20
206.367030
 30
0.0
 10
145.055380
 20
203.583620
 30
0.0
 10
142.271970
 20
199.752580
 30
0.0
 10
138.440930
 20
202.535990
 30
0.0
  0
LWPOLYLINE
  5
175
100
AcDbEntity
  8
Laag_1
 62
1
100
AcDbPolyline
 90
4
 70
1
 10
132.348620
 20
211.370330
 30
0.0
 10
136.567910
 20
209.220490
 30
0.0
 10
134.418070
 20
205.001200
 30
0.0
 10
130.198780
 20
207.151030
 30
0.0
  0
LWPOLYLINE
  5
176
100
AcDbEntity
  8
Laag_1
 62
1
100
AcDbPolyline
 90
4
 70
1
 10
122.799490
 20
214.923560
 30
0.0
 10
127.303140
 20
213.460240
 30
0.0
 10
125.839810
 20
208.956580
 30
0.0
 10
121.336160
 20
210.419900
 30
0.0
  0
LWPOLYLINE
  5
177
100
AcDbEntity
  8
Laag_1
 62
1
100
AcDbPolyline
 90
4
 70
1
 10
112.812070
 20
216.939240
 30
0.0
 10
117.489190
 20
216.198450
 30
0.0
 10
116.748400
 20
211.521330
 30
0.0
 10
112.071285
 20
212.262110
 30
0.0
  0
SPLINE
  5
178
100
AcDbEntity
  8
Laag_1
 62
1
100
AcDbSpline
 70
8
 71
3
 72
8
 73
4
 74
0
 40
0
 40
0
 40
0
 40
0
 40
1
 40
1
 40
1
 40
1
 10
197.367700
 20
254.867714
 30
0.0
 10
202.907700
 20
254.867714
 30
0.0
 10
207.367700
 20
250.407714
 30
0.0
 10
207.367700
 20
244.867714
 30
0.0
  0
LWPOLYLINE
  5
179
100
AcDbEntity
  8
Laag_1
 62
1
100
AcDbPolyline
 90
2
 70
0
 10
12.632292
 20
254.867714
 30
0.0
 10
197.367700
 20
254.867714
 30
0.0
  0
SPLINE
  5
17a
100
AcDbEntity
  8
Laag_1
 62
1
100
AcDbSpline
 70
8
 71
3
 72
8
 73
4
 74
0
 40
0
 40
0
 40
0
 40
0
 40
1
 40
1
 40
1
 40
1
 10
207.367700
 20
60.132300
 30
0.0
 10
207.367700
 20
54.592300
 30
0.0
 10
202.907700
 20
50.132300
 30
0.0
 10
197.367700
 20
50.132300
 30
0.0
  0
LWPOLYLINE
  5
17b
100
AcDbEntity
  8
Laag_1
 62
1
100
AcDbPolyline
 90
2
 70
0
 10
207.367700
 20
244.867714
 30
0.0
 10
207.367700
 20
60.132300
 30
0.0
  0
SPLINE
  5
17c
100
AcDbEntity
  8
Laag_1
 62
1
100
AcDbSpline
 70
8
 71
3
 72
8
 73
4
 74
0
 40
0
 40
0
 40
0
 40
0
 40
1
 40
1
 40
1
 40
1
 10
12.632292
 20
50.132300
 30
0.0
 10
7.092292
 20
50.132300
 30
0.0
 10
2.632292
 20
54.592300
 30
0.0
 10
2.632292
 20
60.132300
 30
0.0
  0
LWPOLYLINE
  5
17d
100
AcDbEntity
  8
Laag_1
 62
1
100
AcDbPolyline
 90
2
 70
0
 10
197.367700
 20
50.132300
 30
0.0
 10
12.632292
 20
50.132300
 30
0.0
  0
SPLINE
  5
17e
100
AcDbEntity
  8
Laag_1
 62
1
100
AcDbSpline
 70
8
 71
3
 72
8
 73
4
 74
0
 40
0
 40
0
 40
0
 40
0
 40
1
 40
1
 40
1
 40
1
 10
2.632292
 20
244.867714
 30
0.0
 10
2.632292
 20
250.407714
 30
0.0
 10
7.092292
 20
254.867714
 30
0.0
 10
12.632292
 20
254.867714
 30
0.0
  0
LWPOLYLINE
  5
17f
100
AcDbEntity
  8
Laag_1
 62
1
100
AcDbPolyline
 90
2
 70
0
 10
2.632292
 20
60.132300
 30
0.0
 10
2.632292
 20
244.867714
 30
0.0
  0
LWPOLYLINE
  5
180
100
AcDbEntity
  8
Laag_1
 62
1
100
AcDbPolyline
 90
1
 70
1
 10
12.632292
 20
254.867714
 30
0.0
  0
ENDSEC
  0
SECTION
  2
OBJECTS
  0
DICTIONARY
  5
C
330
0
100
AcDbDictionary
  3
ACAD_GROUP
350
D
  3
ACAD_MLINESTYLE
350
17
  0
DICTIONARY
  5
D
330
C
100
AcDbDictionary
  0
DICTIONARY
  5
1A
330
C
100
AcDbDictionary
  0
DICTIONARY
  5
17
330
C
100
AcDbDictionary
  3
STANDARD
350
18
  0
DICTIONARY
  5
19
330
C
100
AcDbDictionary
  0
ENDSEC
  0
EOF
