<?xml version="1.0" encoding="UTF-8" standalone="no"?>
<!-- Created with Inkscape (http://www.inkscape.org/) -->

<svg
   xmlns:dc="http://purl.org/dc/elements/1.1/"
   xmlns:cc="http://creativecommons.org/ns#"
   xmlns:rdf="http://www.w3.org/1999/02/22-rdf-syntax-ns#"
   xmlns:svg="http://www.w3.org/2000/svg"
   xmlns="http://www.w3.org/2000/svg"
   xmlns:sodipodi="http://sodipodi.sourceforge.net/DTD/sodipodi-0.dtd"
   xmlns:inkscape="http://www.inkscape.org/namespaces/inkscape"
   width="210mm"
   height="297mm"
   viewBox="0 0 210 297"
   version="1.1"
   id="svg8"
   inkscape:version="0.92.5 (2060ec1f9f, 2020-04-08)"
   sodipodi:docname="rotoring24_48_2.svg">
  <defs
     id="defs2">
    <inkscape:path-effect
       effect="copy_rotate"
       starting_point="103.46693,145.14808"
       origin="102.46693,145.14808"
       id="path-effect841"
       is_visible="true"
       copies_to_360="true"
       fuse_paths="false"
       starting_angle="0"
       rotation_angle="15"
       num_copies="24" />
    <inkscape:path-effect
       effect="copy_rotate"
       starting_point="103.45659,145.19976"
       origin="102.45556,145.19459"
       id="path-effect859"
       is_visible="true"
       copies_to_360="true"
       fuse_paths="false"
       starting_angle="0"
       rotation_angle="15"
       num_copies="24" />
    <inkscape:path-effect
       effect="copy_rotate"
       starting_point="104.86771,144.51969"
       origin="102.5,144.51969"
       id="path-effect857"
       is_visible="true"
       copies_to_360="true"
       fuse_paths="false"
       starting_angle="0"
       rotation_angle="60"
       num_copies="24" />
    <inkscape:path-effect
       effect="copy_rotate"
       starting_point="104.86771,144.51969"
       origin="102.5,144.51969"
       id="path-effect855"
       is_visible="true"
       copies_to_360="true"
       fuse_paths="false"
       starting_angle="0"
       rotation_angle="60"
       num_copies="24" />
    <inkscape:path-effect
       effect="copy_rotate"
       starting_point="104.86771,144.51969"
       origin="102.5,144.51969"
       id="path-effect853"
       is_visible="true"
       copies_to_360="true"
       fuse_paths="false"
       starting_angle="0"
       rotation_angle="60"
       num_copies="48" />
    <inkscape:path-effect
       effect="copy_rotate"
       starting_point="105.33229,144.51969"
       origin="102.75,144.51969"
       id="path-effect836"
       is_visible="true"
       copies_to_360="true"
       fuse_paths="false"
       starting_angle="0"
       rotation_angle="60"
       num_copies="48" />
    <inkscape:path-effect
       effect="copy_rotate"
       starting_point="104.86771,144.51969"
       origin="102.5,144.51969"
       id="path-effect845"
       is_visible="true"
       copies_to_360="true"
       fuse_paths="false"
       starting_angle="0"
       rotation_angle="15"
       num_copies="24" />
    <inkscape:path-effect
       effect="copy_rotate"
       starting_point="104.86771,144.51969"
       origin="102.5,144.51969"
       id="path-effect840"
       is_visible="true"
       copies_to_360="true"
       fuse_paths="false"
       starting_angle="0"
       rotation_angle="7.5"
       num_copies="48" />
    <inkscape:path-effect
       effect="copy_rotate"
       starting_point="106.57638,147.60812"
       origin="105.13491,146.42048"
       id="path-effect831"
       is_visible="true"
       copies_to_360="true"
       fuse_paths="false"
       starting_angle="-39.485446"
       rotation_angle="7.5"
       num_copies="48" />
    <inkscape:path-effect
       effect="copy_rotate"
       starting_point="93.176916,130.42851"
       origin="91.310532,130.49883"
       id="path-effect827"
       is_visible="true"
       copies_to_360="true"
       fuse_paths="false"
       starting_angle="2.1577517"
       rotation_angle="15"
       num_copies="24" />
    <inkscape:path-effect
       effect="copy_rotate"
       starting_point="105.78511,147.74788"
       origin="105.04753,147.07262"
       id="path-effect3786"
       is_visible="true"
       copies_to_360="true"
       fuse_paths="false"
       starting_angle="-42.474686"
       rotation_angle="15"
       num_copies="24" />
    <inkscape:path-effect
       effect="copy_rotate"
       starting_point="105.06173,141.66128"
       origin="102.12917,144.33542"
       id="path-effect3782"
       is_visible="true"
       copies_to_360="true"
       fuse_paths="false"
       starting_angle="42.360977"
       rotation_angle="9"
       num_copies="48" />
    <inkscape:path-effect
       effect="copy_rotate"
       starting_point="99.21875,54.377083"
       origin="95.25,54.377083"
       id="path-effect3780"
       is_visible="true"
       copies_to_360="true"
       fuse_paths="false"
       starting_angle="0"
       rotation_angle="60"
       num_copies="6" />
    <inkscape:path-effect
       effect="copy_rotate"
       starting_point="103.71833,145.52604"
       origin="100.54333,145.52604"
       id="path-effect3778"
       is_visible="true"
       copies_to_360="true"
       fuse_paths="false"
       starting_angle="0"
       rotation_angle="18"
       num_copies="20" />
    <inkscape:path-effect
       effect="copy_rotate"
       starting_point="102.36631,150.41624"
       origin="97.366668,149.89167"
       id="path-effect3774"
       is_visible="true"
       copies_to_360="true"
       fuse_paths="false"
       starting_angle="-5.9896067"
       rotation_angle="18"
       num_copies="24" />
    <inkscape:path-effect
       effect="copy_rotate"
       starting_point="101.09326,139.83756"
       origin="101.07083,143.80625"
       id="path-effect3770"
       is_visible="true"
       copies_to_360="true"
       fuse_paths="false"
       starting_angle="89.676298"
       rotation_angle="9"
       num_copies="40" />
    <inkscape:path-effect
       effect="copy_rotate"
       starting_point="111.0525,154.68873"
       origin="100.0125,147.6427"
       id="path-effect3764"
       is_visible="true"
       copies_to_360="true"
       fuse_paths="false"
       starting_angle="-32.547137"
       rotation_angle="9"
       num_copies="40" />
    <inkscape:path-effect
       effect="copy_rotate"
       starting_point="110.08125,927.51969"
       origin="95,927.51969"
       id="path-effect3760"
       is_visible="true"
       copies_to_360="true"
       fuse_paths="true"
       starting_angle="0"
       rotation_angle="60"
       num_copies="12" />
    <inkscape:path-effect
       effect="copy_rotate"
       starting_point="73.043899,43.396877"
       origin="67.28,43.396877"
       id="path-effect3733"
       is_visible="true"
       copies_to_360="true"
       fuse_paths="false"
       starting_angle="0"
       rotation_angle="60"
       num_copies="20" />
    <inkscape:path-effect
       effect="copy_rotate"
       starting_point="45.269643,50.877403"
       origin="39.6,50.877403"
       id="path-effect3715"
       is_visible="true"
       copies_to_360="true"
       fuse_paths="false"
       starting_angle="0"
       rotation_angle="60"
       num_copies="4" />
  </defs>
  <sodipodi:namedview
     id="base"
     pagecolor="#ffffff"
     bordercolor="#666666"
     borderopacity="1.0"
     inkscape:pageopacity="0.0"
     inkscape:pageshadow="2"
     inkscape:zoom="1"
     inkscape:cx="623.80955"
     inkscape:cy="529.07293"
     inkscape:document-units="mm"
     inkscape:current-layer="layer1"
     showgrid="false"
     inkscape:window-width="1920"
     inkscape:window-height="1001"
     inkscape:window-x="1911"
     inkscape:window-y="-9"
     inkscape:window-maximized="1"
     showguides="false" />
  <metadata
     id="metadata5">
    <rdf:RDF>
      <cc:Work
         rdf:about="">
        <dc:format>image/svg+xml</dc:format>
        <dc:type
           rdf:resource="http://purl.org/dc/dcmitype/StillImage" />
        <dc:title />
      </cc:Work>
    </rdf:RDF>
  </metadata>
  <g
     inkscape:label="Laag 1"
     inkscape:groupmode="layer"
     id="layer1">
    <path
       style="fill:none;stroke:#000000;stroke-width:0.2;stroke-opacity:1;stroke-miterlimit:4;stroke-dasharray:none"
       id="path3758"
       inkscape:transform-center-x="5.2916667"
       inkscape:transform-center-y="-89.958333"
       inkscape:path-effect="#path-effect3760"
       sodipodi:type="arc"
       sodipodi:cx="94.985413"
       sodipodi:cy="59.139584"
       sodipodi:rx="15.08125"
       sodipodi:ry="15.08125"
       d="" />
    <path
       style="fill:none;stroke:#00ff00;stroke-width:0.2;stroke-linecap:butt;stroke-linejoin:miter;stroke-opacity:0.99993646;stroke-miterlimit:4;stroke-dasharray:none"
       d="M 102.4546,97.497331 V 77.693558 M 90.122099,99.124182 84.996505,79.995206 M 78.630877,103.88749 68.728991,86.736915 m 0.03505,24.725715 -14.003383,-14.003381 m 6.433345,23.874131 -17.150571,-9.90188 m 12.393215,21.39557 -19.128976,-5.1256 m 17.508507,17.45894 H 35.012408 m 21.430624,12.3325 -19.128976,5.12559 m 23.89228,6.36563 -17.150571,9.90189 m 24.725716,-0.0351 -14.003382,14.00338 m 23.874135,-6.43335 -9.901887,17.15057 m 21.395572,-12.39321 -5.125594,19.12898 m 17.458935,-17.50851 v 19.80377 m 12.3325,-21.43062 5.12559,19.12897 m 6.36563,-23.89228 9.90189,17.15057 m -0.0351,-24.72571 14.00338,14.00338 m -6.43335,-23.87413 17.15057,9.90188 m -12.39321,-21.39557 19.12898,5.1256 m -17.50851,-17.45894 h 19.80377 m -21.43062,-12.3325 19.12897,-5.12559 m -23.89228,-6.36563 17.15057,-9.90189 m -24.72571,0.035 14.00338,-14.003379 m -23.87413,6.433349 9.90188,-17.150575 m -21.39557,12.393215 5.1256,-19.128976"
       id="path3784"
       inkscape:connector-curvature="0"
       sodipodi:nodetypes="cc"
       transform="translate(0.04539532,-0.69355768)"
       inkscape:path-effect="#path-effect841"
       inkscape:original-d="M 102.4546,97.497331 V 77.693558" />
    <path
       style="opacity:1;fill:none;fill-opacity:1;stroke:#ff0000;stroke-width:0.2;stroke-opacity:0.99993646;stroke-miterlimit:4;stroke-dasharray:none"
       d="m 100.13229,69.632298 h 4.73542 v 4.73541 h -4.73542 z m -9.75451,0.94972 4.694908,-0.618096 0.618095,4.694898 -4.694908,0.618096 z m -9.547096,2.214814 4.574065,-1.225616 1.225614,4.574054 -4.574064,1.225617 z m -9.176327,3.442013 4.374958,-1.812167 1.812163,4.374948 -4.374958,1.812167 z m -8.64855,4.610316 4.100994,-2.36771 2.367705,4.100985 -4.100994,2.36771 z m -7.972793,5.699737 3.756861,-2.882741 2.882735,3.756853 -3.756861,2.882741 z m -7.160621,6.691633 3.348448,-3.348448 3.348441,3.348441 -3.348448,3.348448 z m -6.225926,7.569029 2.882741,-3.756856 3.756853,2.882735 -2.882741,3.756861 z m -5.184706,8.31693 2.36771,-4.10099 4.100985,2.3677 -2.36771,4.101 z m -4.054773,8.92251 1.812167,-4.37495 4.374948,1.81216 -1.812167,4.37496 z m -2.855462,9.37544 1.225616,-4.57407 4.574055,1.22562 -1.225617,4.57406 z m -1.607294,9.66794 0.618096,-4.69491 4.694898,0.6181 -0.618096,4.6949 z m -0.331624,9.79502 v -4.73542 h 4.73541 v 4.73542 z m 0.94972,9.75451 -0.618096,-4.69491 4.694898,-0.61809 0.618096,4.6949 z m 2.214814,9.5471 -1.225616,-4.57407 4.574054,-1.22561 1.225617,4.57406 z m 3.442013,9.17632 -1.812167,-4.37495 4.374948,-1.81217 1.812167,4.37496 z m 4.610316,8.64855 -2.36771,-4.10099 4.100985,-2.36771 2.36771,4.101 z m 5.699737,7.9728 -2.882741,-3.75686 3.756853,-2.88274 2.882741,3.75686 z m 6.691633,7.16062 -3.348448,-3.34845 3.348441,-3.34844 3.348448,3.34845 z m 7.569034,6.22592 -3.756861,-2.88274 2.882735,-3.75685 3.756861,2.88274 z m 8.316926,5.18471 -4.100994,-2.36771 2.367705,-4.10099 4.100994,2.36771 z m 8.922514,4.05477 -4.374958,-1.81216 1.812163,-4.37495 4.374958,1.81216 z m 9.375434,2.85546 -4.574065,-1.22561 1.225615,-4.57406 4.574064,1.22562 z m 9.667939,1.6073 -4.694908,-0.6181 0.618095,-4.6949 4.694908,0.6181 z m 9.795022,0.33162 h -4.73542 v -4.73541 h 4.73542 z m 9.75451,-0.94972 -4.69491,0.6181 -0.61809,-4.6949 4.6949,-0.6181 z m 9.5471,-2.21481 -4.57407,1.22561 -1.22561,-4.57405 4.57406,-1.22562 z m 9.17632,-3.44201 -4.37495,1.81216 -1.81217,-4.37495 4.37496,-1.81216 z m 8.64855,-4.61032 -4.10099,2.36771 -2.36771,-4.10099 4.101,-2.36771 z m 7.9728,-5.69974 -3.75686,2.88274 -2.88274,-3.75685 3.75686,-2.88274 z m 7.16062,-6.69163 -3.34845,3.34845 -3.34844,-3.34844 3.34845,-3.34845 z m 6.22592,-7.56903 -2.88274,3.75686 -3.75685,-2.88274 2.88274,-3.75686 z m 5.18471,-8.31693 -2.36771,4.10099 -4.10099,-2.3677 2.36771,-4.101 z m 4.05477,-8.92251 -1.81216,4.37495 -4.37495,-1.81216 1.81216,-4.37496 z m 2.85546,-9.37544 -1.22561,4.57407 -4.57406,-1.22562 1.22562,-4.57406 z m 1.6073,-9.66794 -0.6181,4.69491 -4.6949,-0.6181 0.6181,-4.6949 z m 0.33162,-9.79502 v 4.73542 h -4.73541 v -4.73542 z m -0.94972,-9.75451 0.6181,4.69491 -4.6949,0.61809 -0.6181,-4.6949 z m -2.21481,-9.5471 1.22561,4.57407 -4.57405,1.22561 -1.22562,-4.57406 z m -3.44201,-9.17632 1.81216,4.37495 -4.37495,1.81217 -1.81216,-4.37496 z m -4.61032,-8.64855 2.36771,4.10099 -4.10099,2.36771 -2.36771,-4.101 z m -5.69974,-7.972796 2.88274,3.756856 -3.75685,2.88274 -2.88274,-3.756861 z m -6.69163,-7.160621 3.34845,3.348448 -3.34844,3.348441 -3.34845,-3.348448 z m -7.56903,-6.225926 3.75686,2.882741 -2.88274,3.756853 -3.75686,-2.882741 z m -8.31693,-5.184706 4.10099,2.36771 -2.3677,4.100985 -4.101,-2.36771 z m -8.92251,-4.054773 4.37495,1.812167 -1.81216,4.374948 -4.37496,-1.812167 z m -9.37544,-2.855462 4.57407,1.225616 -1.22562,4.574055 -4.57406,-1.225617 z m -9.66794,-1.607294 4.69491,0.618096 -0.6181,4.694898 -4.6949,-0.618096 z"
       id="rect842"
       inkscape:connector-curvature="0"
       inkscape:path-effect="#path-effect853"
       inkscape:original-d="m 100.13229,69.632298 h 4.73542 v 4.73541 h -4.73542 z" />
    <path
       style="opacity:1;fill:none;fill-opacity:1;stroke:#ff0000;stroke-width:0.2;stroke-opacity:0.99993646;stroke-miterlimit:4;stroke-dasharray:none"
       d="m 100.13229,99.632296 h 4.73542 v 4.735414 h -4.73542 z m -11.537035,2.142314 4.574065,-1.22562 1.225615,4.57406 -4.574064,1.22561 z m -10.589449,5.05531 4.100994,-2.36771 2.367707,4.10099 -4.100994,2.36771 z m -8.92021,7.62381 3.348447,-3.34844 3.348443,3.34844 -3.348447,3.34845 z m -6.643075,9.67276 2.36771,-4.10099 4.100989,2.3677 -2.36771,4.101 z m -3.913223,11.06252 1.225617,-4.57406 4.574059,1.22561 -1.225617,4.57407 z m -0.916692,11.69839 v -4.73542 h 4.735414 v 4.73542 z m 2.142309,11.53703 -1.225617,-4.57406 4.574059,-1.22562 1.225617,4.57407 z m 5.055316,10.58945 -2.36771,-4.10099 4.100989,-2.36771 2.36771,4.101 z m 7.623812,8.92021 -3.348447,-3.34844 3.348443,-3.34845 3.348447,3.34845 z m 9.672757,6.64308 -4.100994,-2.36771 2.367707,-4.10099 4.100994,2.36771 z m 11.06252,3.91322 -4.574065,-1.22562 1.225616,-4.57405 4.574064,1.22561 z m 11.69839,0.91669 h -4.73542 v -4.73541 h 4.73542 z m 11.53703,-2.14231 -4.57406,1.22562 -1.22562,-4.57406 4.57407,-1.22561 z m 10.58945,-5.05531 -4.10099,2.36771 -2.36771,-4.10099 4.101,-2.36771 z m 8.92021,-7.62381 -3.34844,3.34844 -3.34845,-3.34844 3.34845,-3.34845 z m 6.64308,-9.67276 -2.36771,4.10099 -4.10099,-2.3677 2.36771,-4.101 z m 3.91322,-11.06252 -1.22562,4.57406 -4.57405,-1.22561 1.22561,-4.57407 z m 0.91669,-11.69839 v 4.73542 h -4.73541 v -4.73542 z m -2.14231,-11.53703 1.22562,4.57406 -4.57406,1.22562 -1.22561,-4.57407 z m -5.05531,-10.58945 2.36771,4.10099 -4.10099,2.36771 -2.36771,-4.101 z m -7.62381,-8.92021 3.34844,3.34844 -3.34844,3.34845 -3.34845,-3.34845 z m -9.67276,-6.64308 4.10099,2.36771 -2.3677,4.10099 -4.101,-2.36771 z m -11.06252,-3.91322 4.57406,1.22562 -1.22561,4.57405 -4.57407,-1.22561 z"
       id="rect842-2"
       inkscape:connector-curvature="0"
       inkscape:path-effect="#path-effect857"
       inkscape:original-d="m 100.13229,99.632296 h 4.73542 v 4.735414 h -4.73542 z" />
    <rect
       style="fill:none;stroke:#ff0000;stroke-width:0.2;stroke-opacity:0.99993646;stroke-miterlimit:4;stroke-dasharray:none"
       id="rect3766-7"
       width="184.73541"
       height="184.73541"
       x="10.132292"
       y="52.13229"
       rx="10"
       ry="10" />
    <circle
       style="opacity:1;fill:none;fill-opacity:1;stroke:#ff0000;stroke-width:0.2;stroke-miterlimit:4;stroke-dasharray:none;stroke-opacity:0.99994238"
       id="path846"
       cx="22.5"
       cy="224.5"
       r="3.4000001" />
    <circle
       style="opacity:1;fill:none;fill-opacity:1;stroke:#ff0000;stroke-width:0.2;stroke-miterlimit:4;stroke-dasharray:none;stroke-opacity:0.99994238"
       id="path846-6"
       cx="182.5"
       cy="224.5"
       r="3.4000001" />
  </g>
</svg>
